<?xml version="1.0" encoding="utf-8"?>
<!-- Generator: Adobe Illustrator 27.5.0, SVG Export Plug-In . SVG Version: 6.00 Build 0)  -->
<svg version="1.1" xmlns="http://www.w3.org/2000/svg" xmlns:xlink="http://www.w3.org/1999/xlink" x="0px" y="0px"
	 viewBox="0 0 750 500" style="enable-background:new 0 0 750 500;" xml:space="preserve">
<g id="Background_Simple">
	<g>
		<path style="fill:#92E3A9;" d="M721.048,331.249c-9.515-46.733-28.787-92.473-51.968-133.594
			c-37.645-66.78-93.894-125.511-168.734-142.995C330.754,15.041,294.291,188.484,256.132,211.375s-133.131,10.565-184.857,83.64
			c-51.726,73.075-45.79,188.41-45.79,188.41H728.45C730.052,432.431,731.183,381.026,721.048,331.249z"/>
		<path style="opacity:0.7;fill:#FFFFFF;" d="M721.048,331.249c-9.515-46.733-28.787-92.473-51.968-133.594
			c-37.645-66.78-93.894-125.511-168.734-142.995C330.754,15.041,294.291,188.484,256.132,211.375s-133.131,10.565-184.857,83.64
			c-51.726,73.075-45.79,188.41-45.79,188.41H728.45C730.052,432.431,731.183,381.026,721.048,331.249z"/>
	</g>
</g>
<g id="Plants">
	<g style="opacity:0.2;">
		<g>
			<g>
				<path d="M337.232,157.329c-0.352-0.407-0.336-1.024,0.05-1.412c32.138-32.298,79.604-45.706,123.873-34.991
					c0.556,0.135,0.901,0.696,0.765,1.254c-0.135,0.558-0.696,0.901-1.254,0.765c-43.569-10.545-90.282,2.651-121.911,34.437
					c-0.405,0.407-1.063,0.408-1.47,0.004C337.266,157.368,337.249,157.349,337.232,157.329z"/>
			</g>
			<g>
				<g>
					<path d="M380.834,148.21c-5.093-11.649-24.995-6.64-24.996-6.109c-1.83,1.191-3.636,2.432-5.417,3.725
						c2.819-0.803,9.669,1.395,17.074,7.471C375.054,159.053,386.096,159.128,380.834,148.21z"/>
				</g>
				<g>
					<path d="M364.593,115.285c-5.404-11.246-17.16,1.306-14.862,11.086c1.93,9.655,2.008,16.772,0.578,19.31
						c1.692-1.411,3.415-2.777,5.168-4.095C355.07,141.309,369.315,126.12,364.593,115.285z"/>
				</g>
			</g>
			<g>
				<g>
					<path d="M398.389,141.329c-3.082-12.322-23.348-10.822-23.422-10.319c-1.977,0.849-3.938,1.749-5.881,2.7
						c2.874-0.287,9.195,3.073,15.431,10.33C390.951,151.017,401.738,152.979,398.389,141.329z"/>
				</g>
				<g>
					<path d="M387.911,106.145c-3.446-11.986-17.003-1.645-16.344,8.351c0.311,9.822-0.766,16.818-2.567,19.053
						c1.875-1.084,3.775-2.12,5.699-3.107C374.332,130.118,390.734,117.634,387.911,106.145z"/>
				</g>
			</g>
			<g>
				<g>
					<path d="M416.767,137.502c-0.993-12.658-21.147-14.583-21.288-14.108c-2.077,0.501-4.146,1.053-6.202,1.658
						c2.858,0.209,8.495,4.591,13.41,12.794C407.835,145.809,418.116,149.549,416.767,137.502z"/>
				</g>
				<g>
					<path d="M412.324,101.061c-1.4-12.391-16.45-4.467-17.448,5.488c-1.321,9.73-3.528,16.437-5.657,18.328
						c2.012-0.746,4.044-1.443,6.091-2.09C394.989,122.417,413.171,112.867,412.324,101.061z"/>
				</g>
			</g>
			<g>
				<g>
					<path d="M435.559,136.799c1.129-12.649-18.459-17.912-18.661-17.467c-2.131,0.147-4.259,0.346-6.382,0.598
						c2.776,0.684,7.595,5.947,11.07,14.855C425.324,143.496,434.863,148.901,435.559,136.799z"/>
				</g>
				<g>
					<path d="M437.285,100.127c0.689-12.454-15.526-7.155-18.166,2.496c-2.931,9.374-6.224,15.618-8.632,17.126
						c2.104-0.399,4.22-0.747,6.345-1.042C416.561,118.287,436.123,111.905,437.285,100.127z"/>
				</g>
			</g>
			<g>
				<g>
					<path d="M454.352,139.29c3.238-12.288-15.35-20.797-15.609-20.382c-2.137-0.213-4.277-0.373-6.421-0.48
						c2.631,1.139,6.521,7.135,8.47,16.502C443.029,144.142,451.616,151.096,454.352,139.29z"/>
				</g>
				<g>
					<path d="M462.249,103.436c2.775-12.165-14.257-9.705-18.489-0.627c-4.487,8.747-8.798,14.352-11.434,15.436
						c2.149-0.042,4.302-0.03,6.459,0.035C438.569,117.81,459.09,114.834,462.249,103.436z"/>
				</g>
			</g>
			<g>
				<path d="M451.219,119.929c-0.186-0.283,18.249-2.594,27.949,0.471c9.616,2.732,9.842,10.597,6.569,13.485
					c-3.243,2.957-9.863,0.779-14.92-2.161C466.053,128.418,451.428,119.701,451.219,119.929z"/>
				<path d="M450.695,120.382c-0.02-0.023-0.038-0.047-0.055-0.073c-0.161-0.245-0.149-0.576,0.028-0.81
					c0.012-0.016,0.028-0.031,0.049-0.048c0.131-0.143,0.234-0.249,0.5-0.218c3.284-1.005,19.826-2.129,28.161,0.506
					c4.734,1.344,7.932,4.193,8.753,7.81c0.591,2.606-0.168,5.296-1.935,6.855c-4.387,4-13.146-0.582-15.727-2.082
					c-4.647-3.223-17.964-11.15-19.335-11.706C450.962,120.595,450.806,120.511,450.695,120.382z M485.102,124.616
					c-1.157-1.336-3.044-2.674-6.122-3.549c-7.654-2.419-20.659-1.453-25.569-0.836c1.274,0.706,3.224,1.858,6.256,3.676
					c3.907,2.342,8.992,5.476,11.546,7.248c4.845,2.814,11.12,4.898,14.058,2.218c1.401-1.236,1.99-3.398,1.509-5.516
					C486.583,126.996,486.133,125.806,485.102,124.616z"/>
			</g>
		</g>
		<g>
			<g>
				<path d="M329.92,163.327c-0.539,0-0.994-0.416-1.035-0.962c-3.383-45.437,17.548-90.099,54.625-116.555
					c0.466-0.332,1.116-0.225,1.449,0.242c0.333,0.467,0.225,1.116-0.242,1.449c-36.49,26.037-57.089,69.991-53.759,114.709
					c0.043,0.572-0.387,1.071-0.959,1.113C329.973,163.326,329.947,163.327,329.92,163.327z"/>
			</g>
			<g>
				<g>
					<path d="M351.565,124.393c-12.141-3.774-21.38,14.551-20.979,14.899c-0.297,2.163-0.541,4.341-0.729,6.533
						c1.237-2.657,7.384-6.397,16.824-8.018C355.98,135.86,363.264,127.561,351.565,124.393z"/>
				</g>
				<g>
					<path d="M316.043,115.121c-12.04-3.275-10.244,13.828-1.346,18.493c8.563,4.861,13.994,9.46,14.978,12.202
						c0.04-2.203,0.136-4.399,0.287-6.588C329.485,139.355,327.325,118.644,316.043,115.121z"/>
				</g>
			</g>
			<g>
				<g>
					<path d="M357.853,106.617c-11.333-5.735-23.464,10.568-23.132,10.953c-0.653,2.05-1.256,4.122-1.808,6.213
						c1.664-2.361,8.341-4.941,17.91-4.905C360.309,118.582,368.853,111.711,357.853,106.617z"/>
				</g>
				<g>
					<path d="M324.395,91.509c-11.317-5.24-12.373,11.778-4.384,17.823c7.629,6.194,12.214,11.588,12.724,14.411
						c0.408-2.127,0.868-4.242,1.381-6.342C333.632,117.467,334.929,96.895,324.395,91.509z"/>
				</g>
			</g>
			<g>
				<g>
					<path d="M366.99,90.217c-10.22-7.534-24.867,6.443-24.6,6.86c-0.981,1.898-1.917,3.824-2.806,5.774
						c2.028-2.024,9.032-3.417,18.45-1.764C367.424,102.408,376.98,97.084,366.99,90.217z"/>
				</g>
				<g>
					<path d="M336.531,69.725c-10.284-7.052-14.144,9.512-7.271,16.783c6.492,7.367,10.118,13.426,10.154,16.273
						c0.753-2.01,1.556-4.002,2.407-5.973C341.33,96.809,346.01,76.812,336.531,69.725z"/>
				</g>
			</g>
			<g>
				<g>
					<path d="M378.758,75.55c-8.824-9.132-25.624,2.232-25.42,2.676c-1.284,1.707-2.526,3.446-3.725,5.217
						c2.334-1.651,9.467-1.85,18.477,1.354C377.121,87.672,387.452,83.997,378.758,75.55z"/>
				</g>
				<g>
					<path d="M352.162,50.243c-8.964-8.672-15.572,7.055-10.003,15.368c5.168,8.351,7.734,14.928,7.298,17.736
						c1.075-1.852,2.197-3.679,3.365-5.479C352.327,77.796,360.306,58.83,352.162,50.243z"/>
				</g>
			</g>
			<g>
				<g>
					<path d="M392.941,62.972c-7.171-10.491-25.77-2.007-25.626-1.54c-1.56,1.476-3.082,2.99-4.565,4.541
						c2.583-1.244,9.662-0.26,18.02,4.398C389.199,74.709,400.076,72.769,392.941,62.972z"/>
				</g>
				<g>
					<path d="M371.003,33.535c-7.381-10.061-16.669,4.426-12.576,13.568c3.676,9.117,5.092,16.045,4.186,18.748
						c1.375-1.652,2.793-3.272,4.254-4.86C366.372,60.846,377.553,43.383,371.003,33.535z"/>
				</g>
			</g>
			<g>
				<path d="M376.253,52.669c-0.336-0.045,9.984-15.495,18.65-20.822c8.359-5.482,14.453-0.505,14.495,3.86
					c0.113,4.387-5.867,7.966-11.399,9.866C392.382,47.01,376.218,52.362,376.253,52.669z"/>
				<path d="M376.253,53.362c-0.03,0-0.061-0.002-0.091-0.006c-0.29-0.039-0.533-0.264-0.594-0.551
					c-0.004-0.02-0.005-0.042-0.004-0.068c-0.022-0.192-0.035-0.34,0.162-0.521c1.389-3.14,11.367-16.382,18.815-20.959
					c4.114-2.7,8.361-3.253,11.633-1.506c2.357,1.259,3.894,3.594,3.916,5.95c0.153,5.935-9.045,9.558-11.867,10.527
					c-5.478,1.404-20.188,6.283-21.506,6.956C376.59,53.299,376.424,53.362,376.253,53.362z M401.974,30.12
					c-1.768,0-4.014,0.551-6.69,2.306c-6.838,4.203-14.621,14.667-17.368,18.784c1.368-0.501,3.515-1.221,6.874-2.324
					c4.328-1.421,10.025-3.215,13.037-3.985c5.299-1.821,10.981-5.201,10.878-9.176c-0.018-1.868-1.267-3.729-3.183-4.752
					C404.744,30.558,403.549,30.12,401.974,30.12z"/>
			</g>
		</g>
	</g>
	<g style="opacity:0.2;">
		<g>
			<g>
				<path d="M184.12,171.266c-0.347-0.546-1.062-0.74-1.642-0.43c-48.262,25.827-80.081,75.815-83.039,130.455
					c-0.037,0.687,0.49,1.277,1.179,1.314c0.688,0.038,1.277-0.49,1.314-1.179c2.911-53.775,34.226-102.97,81.725-128.388
					c0.608-0.325,0.837-1.082,0.512-1.69C184.153,171.32,184.137,171.293,184.12,171.266z"/>
			</g>
			<g>
				<g>
					<path d="M158.57,218.29c-11.646-9.883,0.99-31.054,1.602-30.872c2.002-1.694,4.054-3.344,6.156-4.947
						c-1.898,2.966-1.734,11.608,2.701,22.226C173.043,215.383,169.316,228.114,158.57,218.29z"/>
				</g>
				<g>
					<path d="M126.292,188.232c-11.075-10.102,7.429-19.294,17.889-13.273c10.444,5.555,18.606,8.102,22.02,7.334
						c-2.208,1.459-4.374,2.971-6.497,4.533C159.527,186.261,137.13,197.406,126.292,188.232z"/>
				</g>
			</g>
			<g>
				<g>
					<path d="M144.59,236.113c-13.114-7.801-4.39-30.603-3.786-30.514c1.659-1.982,3.372-3.928,5.138-5.834
						c-1.323,3.207,0.36,11.641,6.558,21.323C158.307,230.9,156.84,243.99,144.59,236.113z"/>
				</g>
				<g>
					<path d="M107.723,211.907c-12.603-8.104,3.978-20.133,15.253-15.922c11.195,3.749,19.617,4.926,22.81,3.626
						c-1.895,1.783-3.743,3.612-5.544,5.485C139.997,204.561,119.968,219.123,107.723,211.907z"/>
				</g>
			</g>
			<g>
				<g>
					<path d="M133.84,255.939c-14.222-5.514-9.478-29.369-8.883-29.367c1.294-2.218,2.644-4.407,4.05-6.564
						c-0.747,3.361,2.35,11.361,10.091,19.848C146.484,248.53,147.237,261.651,133.84,255.939z"/>
				</g>
				<g>
					<path d="M93.443,238.243c-13.775-5.89,0.54-20.471,12.34-18.181c11.652,1.84,20.132,1.616,23.043-0.18
						c-1.554,2.058-3.057,4.155-4.508,6.287C124.003,225.67,106.735,243.294,93.443,238.243z"/>
				</g>
			</g>
			<g>
				<g>
					<path d="M126.542,277.319c-14.945-3.069-14.236-27.425-13.654-27.505c0.905-2.401,1.869-4.781,2.892-7.137
						c-0.171,3.43,4.22,10.793,13.271,17.868C137.782,267.854,140.708,280.698,126.542,277.319z"/>
				</g>
				<g>
					<path d="M83.749,266.642c-14.568-3.508-2.872-20.336,9.145-20.041c11.798-0.136,20.12-1.768,22.687-4.019
						c-1.186,2.283-2.316,4.598-3.39,6.941C111.801,249.067,97.703,269.372,83.749,266.642z"/>
				</g>
			</g>
			<g>
				<g>
					<path d="M122.918,299.804c-15.258-0.517-18.63-24.844-18.063-24.999c0.493-2.532,1.048-5.051,1.665-7.554
						c0.402,3.421,5.958,9.967,16.064,15.444C132.412,288.451,137.448,300.733,122.918,299.804z"/>
				</g>
				<g>
					<path d="M78.936,296.509c-14.957-1.007-6.244-19.756,5.663-21.492c11.614-2.143,19.552-5.168,21.71-7.827
						c-0.79,2.458-1.52,4.94-2.19,7.444C103.653,274.226,93.142,296.81,78.936,296.509z"/>
				</g>
			</g>
			<g>
				<path d="M101.723,289.513c-0.261-0.312-9.287,20.103-9.109,32.323c-0.177,12.008,8.795,14.984,13.249,12.215
					c4.522-2.71,4.302-11.08,2.666-17.914C106.368,309.515,101.388,289.675,101.723,289.513z"/>
				<path d="M102.425,289.067c-0.02-0.031-0.041-0.061-0.065-0.089c-0.226-0.269-0.611-0.371-0.941-0.248
					c-0.022,0.009-0.046,0.022-0.072,0.04c-0.209,0.101-0.368,0.183-0.424,0.5c-2.29,3.431-9.296,22.078-9.142,32.579
					c-0.089,5.911,2.085,10.574,5.964,12.768c2.794,1.58,6.152,1.635,8.556,0.141c6.118-3.667,3.87-15.328,3.035-18.815
					c-2.104-6.46-6.627-24.52-6.793-26.291C102.578,289.449,102.535,289.24,102.425,289.067z M95.415,330.12
					c-1.138-1.793-2.026-4.426-1.969-8.27c-0.14-9.643,5.461-24.273,7.868-29.711c0.372,1.71,1.025,4.351,2.069,8.468
					c1.346,5.305,3.195,12.238,4.353,15.788c1.565,6.547,1.796,14.486-2.302,16.942c-1.906,1.185-4.597,1.116-6.868-0.168
					C97.643,332.647,96.429,331.717,95.415,330.12z"/>
			</g>
		</g>
		<g>
			<g>
				<path d="M193.546,164.924c0.186-0.62-0.135-1.288-0.749-1.523c-51.115-19.583-109.734-10.921-152.98,22.607
					c-0.543,0.422-0.645,1.207-0.222,1.751c0.422,0.545,1.206,0.645,1.751,0.222c42.561-32.996,100.251-41.521,150.557-22.248
					c0.644,0.247,1.366-0.076,1.612-0.719C193.527,164.984,193.537,164.955,193.546,164.924z"/>
			</g>
			<g>
				<g>
					<path d="M141.271,176.386c-0.151-15.274,24.126-19.577,24.389-18.995c2.591,0.404,5.182,0.876,7.769,1.417
						c-3.484,0.507-9.911,6.287-15.036,16.59C152.942,185.426,140.877,190.941,141.271,176.386z"/>
				</g>
				<g>
					<path d="M142.869,132.309c0.389-14.985,19.449-7.012,21.744,4.837c2.636,11.531,6.053,19.369,8.868,21.448
						c-2.549-0.714-5.109-1.363-7.679-1.945C166.112,156.146,143.027,146.508,142.869,132.309z"/>
				</g>
			</g>
			<g>
				<g>
					<path d="M118.646,177.483c-2.686-15.021,20.263-23.35,20.592-22.834c2.585-0.043,5.177-0.021,7.774,0.066
						c-3.291,1.099-8.566,7.892-11.829,18.915C131.565,184.441,120.709,191.9,118.646,177.483z"/>
				</g>
				<g>
					<path d="M112.815,133.767c-2.122-14.832,17.825-10.17,22.022,1.11c4.493,10.917,9.116,18.055,12.189,19.618
						c-2.588-0.265-5.181-0.466-7.775-0.601C139.494,153.359,115.375,147.748,112.815,133.767z"/>
				</g>
			</g>
			<g>
				<g>
					<path d="M96.62,182.333c-5.14-14.361,16.001-26.389,16.388-25.938c2.523-0.474,5.062-0.885,7.613-1.235
						c-3.03,1.635-7.051,9.212-8.401,20.621C110.498,187.042,101.071,196.2,96.62,182.333z"/>
				</g>
				<g>
					<path d="M83.558,140.208c-4.563-14.269,15.83-12.991,21.823-2.57c6.236,10.014,11.955,16.278,15.219,17.303
						c-2.573,0.172-5.142,0.408-7.704,0.707C113.065,155.083,88.44,153.564,83.558,140.208z"/>
				</g>
			</g>
			<g>
				<g>
					<path d="M75.68,190.809c-7.461-13.308,11.416-28.714,11.857-28.326c2.407-0.888,4.838-1.716,7.289-2.485
						c-2.706,2.116-5.398,10.255-4.822,21.728C90.193,193.112,82.397,203.73,75.68,190.809z"/>
				</g>
				<g>
					<path d="M55.743,151.468c-6.883-13.309,13.495-15.482,21.137-6.203c7.825,8.831,14.506,14.054,17.888,14.521
						c-2.502,0.598-4.992,1.258-7.467,1.98C87.391,161.172,62.812,163.804,55.743,151.468z"/>
				</g>
			</g>
			<g>
				<g>
					<path d="M56.308,202.787c-9.596-11.874,6.589-30.346,7.077-30.019c2.237-1.285,4.505-2.514,6.801-3.686
						c-2.323,2.543-3.635,11.028-1.162,22.254C71.105,202.533,65.117,214.38,56.308,202.787z"/>
				</g>
				<g>
					<path d="M30.011,167.378c-9.028-11.967,10.849-17.652,19.955-9.785c9.222,7.378,16.704,11.4,20.127,11.29
						c-2.375,1.012-4.73,2.084-7.062,3.217C63.036,171.48,39.082,178.315,30.011,167.378z"/>
				</g>
			</g>
			<g>
				<path d="M50.215,180.026c0.065-0.402-21.277,6.137-30.4,14.27c-9.195,7.726-5.572,16.457-0.563,18.011
					c5.009,1.645,11.193-4,15.288-9.71C38.134,196.63,49.874,179.879,50.215,180.026z"/>
				<path d="M51.013,180.266c0.011-0.035,0.019-0.071,0.025-0.107c0.056-0.347-0.12-0.704-0.429-0.873
					c-0.021-0.012-0.046-0.021-0.077-0.028c-0.214-0.092-0.38-0.158-0.656,0.007c-4.093,0.515-22.776,7.423-30.614,14.412
					c-4.528,3.802-6.63,8.498-5.75,12.866c0.635,3.147,2.791,5.722,5.494,6.561c6.777,2.225,14.121-7.107,16.212-10.02
					c3.507-5.819,14.201-21.06,15.431-22.344C50.824,180.631,50.954,180.462,51.013,180.266z M15.387,201.836
					c0.61-2.034,2.021-4.429,4.964-6.902c7.198-6.417,21.926-11.759,27.612-13.498c-1.049,1.401-2.619,3.623-5.047,7.107
					c-3.13,4.489-7.161,10.426-9.088,13.625c-3.925,5.468-9.776,10.84-14.315,9.349c-2.143-0.665-3.853-2.746-4.368-5.303
					C14.935,205.174,14.843,203.648,15.387,201.836z"/>
			</g>
		</g>
	</g>
	<g style="opacity:0.2;">
		<g>
			<g>
				<path d="M623.485,482.582h3.651c-12.306-77.612-64.894-144.429-137.489-174.558c-0.917-0.38-1.974,0.054-2.354,0.973
					c-0.382,0.919,0.054,1.974,0.973,2.354C559.536,340.931,611.209,406.44,623.485,482.582z"/>
			</g>
			<g>
				<g>
					<path d="M574.216,428.386c19.047-11.104,41.793,16.267,41.251,17.012c1.344,3.539,2.604,7.125,3.775,10.756
						c-3.125-4.008-14.967-7.937-31.551-7.001C571.218,449.482,555.68,438.293,574.216,428.386z"/>
				</g>
				<g>
					<path d="M630.635,398.892c19.071-10.221,22.693,19.381,9.473,30.726c-12.578,11.547-19.966,21.433-20.561,26.449
						c-0.925-3.707-1.942-7.382-3.049-11.021C617.352,445.076,612.941,409.236,630.635,398.892z"/>
				</g>
			</g>
			<g>
				<g>
					<path d="M556.671,400.794c16.919-14.102,43.764,8.727,43.352,9.507c1.901,3.211,3.726,6.477,5.473,9.796
						c-3.73-3.342-16.019-5.102-32.174-1.318C557.178,421.97,540.066,413.684,556.671,400.794z"/>
				</g>
				<g>
					<path d="M607.331,362.242c17.085-13.261,25.492,15.087,14.344,28.411c-10.481,13.436-16.13,24.335-15.893,29.306
						c-1.517-3.436-3.118-6.83-4.802-10.181C601.825,409.702,591.626,375.443,607.331,362.242z"/>
				</g>
			</g>
			<g>
				<g>
					<path d="M534.85,376.638c14.337-16.709,44.529,1.209,44.241,2.017c2.397,2.826,4.728,5.716,6.989,8.666
						c-4.215-2.631-16.592-2.26-31.865,4.2C538.861,397.407,520.64,392.129,534.85,376.638z"/>
				</g>
				<g>
					<path d="M578.345,330.153c14.634-15.92,27.605,10.57,18.819,25.532c-8.102,14.976-11.872,26.626-10.825,31.452
						c-2.055-3.104-4.186-6.157-6.392-9.157C580.776,377.789,565.084,345.819,578.345,330.153z"/>
				</g>
			</g>
			<g>
				<g>
					<path d="M509.255,356.432c11.357-18.867,44.169-6.202,43.998-5.371c2.833,2.385,5.609,4.841,8.326,7.365
						c-4.587-1.881-16.718,0.559-30.696,9.479C516.738,376.279,497.85,374.09,509.255,356.432z"/>
				</g>
				<g>
					<path d="M544.347,303.315c11.773-18.144,29.06,5.861,22.885,22.076c-5.483,16.124-7.259,28.236-5.429,32.811
						c-2.538-2.711-5.145-5.361-7.819-7.949C554.792,349.941,533.928,320.996,544.347,303.315z"/>
				</g>
			</g>
			<g>
				<g>
					<path d="M480.39,340.698c8.034-20.52,42.766-13.422,42.705-12.577c3.21,1.887,6.371,3.853,9.482,5.896
						c-4.849-1.096-16.429,3.321-28.74,14.445C491.283,359.074,472.147,360.029,480.39,340.698z"/>
				</g>
				<g>
					<path d="M506.006,282.414c8.557-19.874,29.891,0.993,26.532,18.034c-2.663,16.838-2.359,29.096,0.223,33.31
						c-2.966-2.256-5.994-4.442-9.081-6.557C524.462,326.763,498.771,301.606,506.006,282.414z"/>
				</g>
			</g>
			<g>
				<path d="M504.581,316.791c0.55-0.206-22.902-22.298-39.621-27.927c-16.259-6.01-24.62,4.772-22.991,12.165
					c1.516,7.458,13.015,11.179,23.102,12.234C475.124,313.506,504.522,316.258,504.581,316.791z"/>
				<path d="M504.851,317.962c0.052-0.012,0.102-0.027,0.152-0.046c0.475-0.178,0.798-0.653,0.789-1.162
					c-0.001-0.035-0.007-0.073-0.02-0.117c-0.037-0.333-0.073-0.589-0.477-0.817c-3.57-4.766-25.586-23.259-39.952-28.095
					c-8.003-2.961-15.395-2.242-20.245,1.983c-3.493,3.045-5.181,7.589-4.302,11.578c2.052,10.089,19.004,12.631,24.152,13.171
					c9.804,0.24,36.559,2.761,39.049,3.385C504.258,317.987,504.563,318.029,504.851,317.962z M452.34,288.697
					c2.987-0.688,6.998-0.631,12.203,1.293c13.192,4.442,30.415,19.095,36.66,24.983c-2.507-0.315-6.415-0.695-12.52-1.251
					c-7.867-0.717-18.193-1.53-23.582-1.66c-9.663-1.015-20.581-4.515-21.954-11.273c-0.697-3.163,0.69-6.794,3.529-9.268
					C447.831,290.516,449.678,289.31,452.34,288.697z"/>
			</g>
		</g>
		<g>
			<g>
				<path d="M642.425,482.582h4.381c39.748-58.133,50.771-132.864,28.401-200.328c-0.313-0.942-1.333-1.457-2.277-1.143
					c-0.944,0.312-1.457,1.332-1.143,2.277C694.065,350.576,682.692,425.086,642.425,482.582z"/>
			</g>
			<g>
				<g>
					<path d="M639.563,424.971c20.862,7.133,15.057,42.244,14.138,42.322c-1.796,3.333-3.683,6.632-5.661,9.894
						c0.984-4.986-3.796-16.511-15.358-28.436C621.651,436.514,619.941,417.442,639.563,424.971z"/>
				</g>
				<g>
					<path d="M698.79,448.321c20.21,7.728,0.201,29.842-17.03,27.272c-16.962-1.951-29.272-1.066-33.454,1.767
						c2.197-3.126,4.309-6.3,6.337-9.519C655.179,468.508,679.388,441.715,698.79,448.321z"/>
				</g>
			</g>
			<g>
				<g>
					<path d="M648.939,393.648c21.736,3.561,22.047,38.799,21.188,38.998c-1.183,3.539-2.458,7.057-3.824,10.55
						c0.085-5.008-6.627-15.451-20.063-25.187C633.262,407.891,628.326,389.53,648.939,393.648z"/>
				</g>
				<g>
					<path d="M711.245,406.714c21.208,4.237,5.279,29.148-12.091,29.441c-17.018,0.871-28.956,3.734-32.559,7.166
						c1.605-3.396,3.123-6.828,4.554-10.294C671.76,433.616,690.985,403.481,711.245,406.714z"/>
				</g>
			</g>
			<g>
				<g>
					<path d="M652.92,361.338c22.017-0.097,28.232,34.457,27.432,34.768c-0.568,3.662-1.227,7.315-1.977,10.956
						c-0.77-4.909-9.152-14.023-24.032-21.341C639.843,377.965,631.906,360.735,652.92,361.338z"/>
				</g>
				<g>
					<path d="M716.532,363.797c21.615,0.644,10.077,27.788-6.986,30.939c-16.626,3.677-27.9,8.452-30.864,12.402
						c1.002-3.585,1.915-7.195,2.739-10.826C682.11,396.814,696.009,364.025,716.532,363.797z"/>
				</g>
			</g>
			<g>
				<g>
					<path d="M651.443,328.763c21.698-3.763,33.599,29.334,32.859,29.748c0.052,3.703,0.012,7.41-0.119,11.115
						c-1.58-4.699-11.365-12.274-27.258-17.002C641.336,347.411,630.628,331.698,651.443,328.763z"/>
				</g>
				<g>
					<path d="M714.57,320.526c21.423-2.975,14.59,25.806-1.711,31.751c-15.779,6.408-26.099,12.993-28.36,17.372
						c0.388-3.693,0.686-7.399,0.892-11.115C686.156,358.942,694.383,324.222,714.57,320.526z"/>
				</g>
			</g>
			<g>
				<g>
					<path d="M644.446,296.641c20.772-7.357,38.139,23.547,37.46,24.055c0.674,3.662,1.257,7.339,1.749,11.028
						c-2.345-4.384-13.265-10.247-29.732-12.273C637.683,316.904,624.435,303.062,644.446,296.641z"/>
				</g>
				<g>
					<path d="M705.276,277.858c20.626-6.539,18.814,23.248,3.732,31.863c-14.473,9.007-23.542,17.261-25.037,21.972
						c-0.236-3.719-0.565-7.44-0.987-11.157C683.827,320.84,686.031,284.951,705.276,277.858z"/>
				</g>
			</g>
			<g>
				<path d="M678.354,299.283c0.516,0.281,1.868-31.909-4.819-48.234c-6.099-16.227-19.723-15.49-24.246-9.42
					c-4.645,6.028,0.068,17.157,5.872,25.474C661.557,274.862,678.718,298.889,678.354,299.283z"/>
				<path d="M677.645,300.253c0.043,0.031,0.087,0.059,0.134,0.085c0.446,0.243,1.016,0.176,1.395-0.164
					c0.026-0.023,0.051-0.053,0.076-0.092c0.228-0.246,0.397-0.441,0.306-0.896c1.266-5.818,0.838-34.567-4.909-48.594
					c-3-7.989-8.381-13.107-14.75-14.008c-4.588-0.648-9.129,1.05-11.569,4.326c-6.285,8.155,2.889,22.635,5.85,26.88
					c6.235,7.569,21.842,29.447,23,31.738C677.238,299.821,677.406,300.079,677.645,300.253z M665.4,241.398
					c2.475,1.808,5.057,4.878,7.01,10.072c5.277,12.881,5.471,35.493,5.107,44.068c-1.403-2.101-3.673-5.305-7.249-10.284
					c-4.607-6.417-10.751-14.756-14.18-18.915c-5.557-7.97-10.058-18.515-5.847-23.977c1.935-2.598,5.588-3.926,9.317-3.398
					C661.074,239.179,663.195,239.787,665.4,241.398z"/>
			</g>
		</g>
	</g>
</g>
<g id="Ladder">
	<g>
		
			<rect x="369.167" y="301.261" style="fill:#263238;stroke:#263238;stroke-linecap:round;stroke-linejoin:round;stroke-miterlimit:10;" width="21.045" height="13.249"/>
		
			<rect x="354.961" y="315.019" style="fill:#263238;stroke:#263238;stroke-linecap:round;stroke-linejoin:round;stroke-miterlimit:10;" width="21.045" height="13.249"/>
		
			<rect x="326.55" y="342.535" style="fill:#263238;stroke:#263238;stroke-linecap:round;stroke-linejoin:round;stroke-miterlimit:10;" width="21.045" height="13.249"/>
		
			<rect x="312.345" y="356.294" style="fill:#263238;stroke:#263238;stroke-linecap:round;stroke-linejoin:round;stroke-miterlimit:10;" width="21.045" height="13.249"/>
		
			<rect x="269.728" y="397.569" style="fill:#263238;stroke:#263238;stroke-linecap:round;stroke-linejoin:round;stroke-miterlimit:10;" width="21.045" height="13.249"/>
		
			<rect x="239.804" y="426.55" style="fill:#263238;stroke:#263238;stroke-linecap:round;stroke-linejoin:round;stroke-miterlimit:10;" width="21.045" height="13.249"/>
		
			<rect x="225.599" y="440.309" style="fill:#263238;stroke:#263238;stroke-linecap:round;stroke-linejoin:round;stroke-miterlimit:10;" width="21.045" height="13.249"/>
		
			<rect x="209.881" y="455.532" style="fill:#263238;stroke:#263238;stroke-linecap:round;stroke-linejoin:round;stroke-miterlimit:10;" width="21.045" height="13.249"/>
		<path style="fill:#263238;stroke:#263238;stroke-linecap:round;stroke-linejoin:round;stroke-miterlimit:10;" d="M543.841,469.29
			V286.975v-5.077v-27.517H415.992v19.363h-18.415v13.249h4.209v0.51h-18.414v13.249h18.414v30.064h-39.986v-2.038h-21.045v13.249
			h21.045v-3.567h39.986v41.784h-82.602v-10.191h-21.045v13.249h5.787v0.51h-19.993v13.249h21.045v-9.172h96.808v81.404H271.729
			v-44.715h4.838v-13.249h-21.045v13.249h8.944v44.715h-68.792v13.249h352.87V469.29H543.841z M487.123,338.459v41.784h-35.405
			v-41.784H487.123z M451.717,330.815v-43.841h35.405v43.841H451.717z M535.423,380.243h-41.038v-41.784h41.038V380.243z
			 M487.123,387.887v81.404h-35.405v-81.404H487.123z M494.385,387.887h41.038v81.404h-41.038V387.887z M535.423,330.815h-41.038
			v-43.841h41.038V330.815z M409.049,286.993h9.573v-0.018h25.832v43.841h-35.405V286.993z M409.049,338.459h35.405v41.784h-35.405
			V338.459z M409.049,387.887h35.405v81.404h-35.405V387.887z"/>
		<polygon style="fill:#263238;" points="410.852,221.698 198.484,434.067 198.484,482.415 202.484,482.415 202.484,435.724 
			222.684,415.523 222.684,456.234 226.684,456.234 226.684,411.523 263.658,374.549 263.658,415.26 267.658,415.26 
			267.658,370.549 304.633,333.574 304.633,374.285 308.633,374.285 308.633,329.574 345.607,292.6 345.607,333.311 
			349.607,333.311 349.607,288.6 386.581,251.626 386.581,292.337 390.581,292.337 390.581,247.626 412.509,225.698 438.72,225.698 
			438.72,258.678 442.72,258.678 442.72,221.698 		"/>
		<path style="fill:#263238;stroke:#263238;stroke-linecap:round;stroke-linejoin:round;stroke-miterlimit:10;" d="M404.704,282.871
			L201.415,478.732h203.987C405.402,478.732,410.678,279.564,404.704,282.871z"/>
	</g>
</g>
<g id="Character_3">
	<g>
		
			<path style="fill:#263238;stroke:#263238;stroke-width:0.5;stroke-linecap:round;stroke-linejoin:round;stroke-miterlimit:10;" d="
			M677.46,373.182c0,0-1.802-0.334-3.337,0.334c-1.535,0.667-8.075,1.335-8.075,1.335l2.469-13.614c0,0-2.269-0.2-3.27-0.534
			c-1.001-0.334-1.468-0.534-1.468-0.534s-4.004,8.142-6.273,12.613c-2.269,4.471-2.002,9.543-1.468,9.743
			c0.534,0.2,10.945,1.001,12.813,1.001s4.538-0.267,4.538-0.267S675.992,375.384,677.46,373.182z"/>
		
			<path style="fill:#263238;stroke:#263238;stroke-width:0.5;stroke-linecap:round;stroke-linejoin:round;stroke-miterlimit:10;" d="
			M672.588,418.026c0,0,0.817,24.158,0.727,30.152c-0.091,5.994,2.543,20.798,2.543,20.798l0.091,4.723c0,0-0.727,0.999-0.727,1.544
			s-0.273,2.452-0.273,2.452s-2.452,1.998-3.814,3.27c-1.362,1.271-2.543,1.725-1.907,2.452c0.636,0.727,2.906,0.817,4.178,0.727
			c1.271-0.091,5.268-0.908,6.266-1.181c0.999-0.273,3.633-0.727,3.996-1.362c0.363-0.636,0.636-1.544,0.545-1.816
			c-0.091-0.272-0.363-2.634-0.363-3.27c0-0.636,0.182-2.361-0.273-3.633c-0.454-1.272-0.454-0.999-0.454-2.725
			c0-1.725,0.462-20.766,0.371-21.946c-0.091-1.181,0.748-10.512,0.748-10.512s0.516-7.23,0.697-6.867
			c0.182,0.363,3.905,19.889,4.904,22.977c0.999,3.088,4.632,20.162,4.632,20.162s-0.363,1.362,0,1.726
			c0.363,0.363,0.908,1.453,0.908,1.453s0.817,2.997,1.09,5.358s3.36,5.177,4.723,4.904c1.362-0.273,2.089-2.725,1.635-4.904
			c-0.454-2.18-2.18-5.54-2.18-5.54s0.363-2.361,0.363-3.088c0-0.727-1.09-3.814-1.09-3.814l-1.09-25.974l0.545-25.793
			l-26.701-2.724L672.588,418.026z"/>
		<g>
			
				<path style="fill:#92E3A9;stroke:#263238;stroke-width:0.5;stroke-linecap:round;stroke-linejoin:round;stroke-miterlimit:10;" d="
				M683.733,373.048c0,0-1.468-0.133-4.004-0.334c-2.536-0.2-3.47,0.601-4.538,1.935c-1.068,1.335-3.07,7.408-3.804,12.88
				c-0.734,5.472-0.267,15.883,0.2,19.754c0.467,3.871-0.133,11.212,0.2,11.679c0.334,0.467,7.007,2.202,7.675,2.202
				c0.667,0,1.201-1.335,1.201-1.335l0.267,1.468c0,0-1.468,0.067,5.339,0.601c6.807,0.534,13.214-1.802,13.614-2.336
				c0.4-0.534,0.801-1.401,0.868-1.735c0.067-0.334-0.601-5.739-0.601-5.939s-0.267-21.288-0.267-21.288s1.468-9.543-0.467-12.48
				c-1.935-2.936-6.807-4.671-6.807-4.671L683.733,373.048z"/>
			<path style="fill:none;stroke:#263238;stroke-width:0.5;stroke-linecap:round;stroke-linejoin:round;stroke-miterlimit:10;" d="
				M681.942,387.148c0,0-0.727,3.723-0.999,11.988c-0.273,8.264-0.454,19.526-0.454,19.526"/>
			
				<path style="fill:#263238;stroke:#263238;stroke-width:0.5;stroke-linecap:round;stroke-linejoin:round;stroke-miterlimit:10;" d="
				M671.498,393.687c0,0,3.905,2.27,13.26,2.906c9.354,0.636,14.803-2.543,14.803-2.543v2.543c0,0-5.994,2.089-13.169,2.361
				c-7.175,0.272-14.713-3.27-14.713-3.27L671.498,393.687z"/>
			
				<path style="fill:#263238;stroke:#263238;stroke-width:0.5;stroke-linecap:round;stroke-linejoin:round;stroke-miterlimit:10;" d="
				M671.771,406.492c0,0,4.722,2.361,13.804,2.997c9.082,0.636,13.986-2.543,13.986-2.543v2.815c0,0-9.445,2.089-14.894,2.089
				c-5.449,0-12.442-3.179-12.442-3.179L671.771,406.492z"/>
		</g>
		
			<path style="fill:#263238;stroke:#263238;stroke-width:0.5;stroke-linecap:round;stroke-linejoin:round;stroke-miterlimit:10;" d="
			M682.132,373.916c0,0-0.934,1.468-0.801,3.937c0.133,2.469,1.001,8.275,1.001,8.275s5.606-5.873,8.075-7.341
			c2.469-1.468,4.204-3.537,3.671-5.339c-0.534-1.802-2.069-2.002-3.07-2.002C690.006,371.447,683.4,372.047,682.132,373.916z"/>
		<g>
			
				<path style="fill:#FFFFFF;stroke:#263238;stroke-width:0.5;stroke-linecap:round;stroke-linejoin:round;stroke-miterlimit:10;" d="
				M678.795,363.906c0,0-0.067,3.67,0.601,5.472c0.667,1.802,0.868,3.137,0.934,3.871c0.067,0.734,1.401,1.602,2.536,1.602
				s1.802-0.4,1.802-0.4s-0.133,1.535-1.401,3.871c-1.268,2.336-0.667,4.004-0.667,4.004s4.538-5.272,6.273-6.407
				c1.735-1.134,2.87-2.135,2.87-2.135s0.801-1.134,0.734-1.935c-0.067-0.801,0.067-1.335,0.067-1.335s2.469-1.869,2.469-3.67
				c0-1.802-0.267-3.404-0.267-3.404s-4.471-0.534-5.406-0.334c-0.934,0.2-1.802,0.4-4.738,0.734
				c-2.936,0.334-4.204,0.334-4.204,0.334L678.795,363.906z"/>
			<ellipse style="fill:#263238;" cx="684.665" cy="365.628" rx="0.403" ry="0.766"/>
			<ellipse style="fill:#263238;" cx="680.153" cy="365.628" rx="0.403" ry="0.766"/>
			
				<polyline style="fill:none;stroke:#263238;stroke-width:0.5;stroke-linecap:round;stroke-linejoin:round;stroke-miterlimit:10;" points="
				682.215,369.711 681.845,371.632 682.57,371.873 			"/>
			<path style="fill:none;stroke:#263238;stroke-width:0.5;stroke-linecap:round;stroke-linejoin:round;stroke-miterlimit:10;" d="
				M681.67,365.805c0,0-0.908,3.814-0.454,3.905c0,0,0.727,0,0.999,0c0.273,0,1.09-0.182,1.09-0.182"/>
			
				<path style="fill:#263238;stroke:#263238;stroke-width:0.5;stroke-linecap:round;stroke-linejoin:round;stroke-miterlimit:10;" d="
				M695.012,366.842c0-1.802-0.267-3.404-0.267-3.404s-3.355-0.4-4.859-0.377l0.721,0.577c0,0,0.467,1.602,0.734,1.735
				c0.267,0.133,0.667-1.401,1.535-1.602s1.201,0.334,1.268,1.201c0.067,0.867-0.067,2.269-1.001,3.337
				c-0.934,1.068-2.069,1.468-2.069,1.468s-0.267,1.134,0.601,0.934c0.868-0.2,0.868-0.2,0.868-0.2S695.012,368.644,695.012,366.842
				z"/>
			<g>
				
					<path style="fill:#FFFFFF;stroke:#263238;stroke-width:0.5;stroke-linecap:round;stroke-linejoin:round;stroke-miterlimit:10;" d="
					M694.945,361.236c0,0-0.133-4.004-0.934-5.606c-0.801-1.602-4.404-3.871-9.41-3.137c-4.959,0.727-6.34,5.539-6.407,6.74
					c-0.067,1.201-0.801,3.137-1.001,3.403c-0.2,0.267-1.668,0.801-1.335,1.068c0.334,0.267,5.139,1.802,7.608,1.401
					c2.469-0.4,5.939-1.201,5.939-1.201l6.407-0.133C695.813,363.772,695.279,362.638,694.945,361.236z"/>
				<path style="fill:none;stroke:#263238;stroke-width:0.5;stroke-linecap:round;stroke-linejoin:round;stroke-miterlimit:10;" d="
					M686.792,353.2c0,0-2.275,0.803-3.078,2.275c-0.803,1.472-1.205,2.945-1.205,2.945s2.141,0.402,2.141,1.205
					c0,0.803-0.268,2.945-0.268,2.945s3.626-0.274,7.094-0.803"/>
			</g>
			
				<path style="fill:#263238;stroke:#263238;stroke-width:0.5;stroke-linecap:round;stroke-linejoin:round;stroke-miterlimit:10;" d="
				M684.668,374.45l3.337-1.402c0,0-0.601,0.868-1.668,1.869c-1.068,1.001-2.202,1.735-2.202,1.735S684.534,374.784,684.668,374.45z
				"/>
		</g>
		<g>
			
				<path style="fill:#FFFFFF;stroke:#263238;stroke-width:0.5;stroke-linecap:round;stroke-linejoin:round;stroke-miterlimit:10;" d="
				M663.78,360.169c0,0,2.669-5.139,3.07-5.739c0.4-0.601,5.606-3.871,5.606-3.871s3.203-1.468,3.003-0.734
				s-1.201,1.335-1.802,1.935c-0.601,0.601-1.668,3.203-1.668,3.203s1.068-1.001,1.602-1.401c0.534-0.4,1.602-0.734,1.068,0.334
				c-0.534,1.068-2.069,2.936-2.402,3.47c-0.334,0.534-0.534,1.668-1.001,2.069c-0.467,0.4-2.402,1.268-2.402,1.268l-0.334,0.534
				C668.518,361.236,664.113,360.769,663.78,360.169z"/>
			<path style="fill:none;stroke:#263238;stroke-width:0.5;stroke-linecap:round;stroke-linejoin:round;stroke-miterlimit:10;" d="
				M672.789,352.16c0,0-2.336,2.136-2.736,2.536c-0.4,0.4-1.268,1.201-1.401,2.202c-0.134,1.001-0.934,2.603-2.202,2.803"/>
		</g>
		
			<path style="fill:#263238;stroke:#263238;stroke-width:0.5;stroke-linecap:round;stroke-linejoin:round;stroke-miterlimit:10;" d="
			M697.414,376.118c0,0-1.802,1.001-2.202,6.607c-0.4,5.606,1.134,7.741,1.735,8.542c0.601,0.801,1.401,0.734,1.802-0.133
			c0.4-0.868,1.535-2.603,1.535-2.603s14.615-3.137,18.552-4.605c3.937-1.468,7.207-2.603,7.808-3.337
			c0.601-0.734,0.534-3.937-0.133-4.405c-0.667-0.467-2.002-0.601-2.002-0.601s-12.079,0.801-14.014,1.001s-9.743-0.267-10.477-0.2
			C699.283,376.452,697.414,376.118,697.414,376.118z"/>
		<g>
			
				<path style="fill:#FFFFFF;stroke:#263238;stroke-width:0.5;stroke-linecap:round;stroke-linejoin:round;stroke-miterlimit:10;" d="
				M725.643,375.718c0,0,0.534-1.868,1.135-2.469c0.601-0.601,2.87-2.536,3.07-3.337c0.2-0.801,0.534-2.002,1.201-1.068
				c0.667,0.934,0.467,2.336,0.2,3.003c-0.267,0.667-0.467,0.934-0.534,1.135c-0.067,0.2,4.471-0.534,5.673-0.467
				c1.201,0.067,1.602,0.667,1.602,0.667s1.268-0.067,1.401,0.4c0.133,0.467-0.334,1.201-0.334,1.201s0.2,0.601,0.133,0.934
				c-0.067,0.334-0.801,0.801-0.801,0.801s-0.4,0.601-0.867,0.867c-0.467,0.267-3.804,2.069-6.74,2.803
				c-2.936,0.734-4.338-0.067-4.338-0.067L725.643,375.718z"/>
			<path style="fill:none;stroke:#263238;stroke-width:0.5;stroke-linecap:round;stroke-linejoin:round;stroke-miterlimit:10;" d="
				M730.715,372.982c0,0,0.534,1.935,0.601,2.135c0.067,0.2,0.267,1.535-1.468,1.735"/>
			
				<line style="fill:none;stroke:#263238;stroke-width:0.5;stroke-linecap:round;stroke-linejoin:round;stroke-miterlimit:10;" x1="737.989" y1="373.182" x2="734.519" y2="373.783"/>
			
				<line style="fill:none;stroke:#263238;stroke-width:0.5;stroke-linecap:round;stroke-linejoin:round;stroke-miterlimit:10;" x1="739.057" y1="374.784" x2="735.253" y2="375.451"/>
			
				<line style="fill:none;stroke:#263238;stroke-width:0.5;stroke-linecap:round;stroke-linejoin:round;stroke-miterlimit:10;" x1="738.389" y1="376.519" x2="735.386" y2="376.919"/>
			<path style="fill:none;stroke:#263238;stroke-width:0.5;stroke-linecap:round;stroke-linejoin:round;stroke-miterlimit:10;" d="
				M734.052,373.315c0,0,1.468,2.336,1.268,4.338"/>
		</g>
	</g>
</g>
<g id="Character_2">
	<path style="fill:#263238;" d="M543.118,180.063l0.019,15.599c0,0,21.792-1.985,21.792,35.136v76.516h10.431v-76.516l0.241-26.912
		C575.602,203.885,571.423,180.063,543.118,180.063z"/>
	<g>
		<g>
			
				<path style="fill:#263238;stroke:#263238;stroke-width:0.5;stroke-linecap:round;stroke-linejoin:round;stroke-miterlimit:10;" d="
				M471.212,188.661l-3.95,26.333l-5.706,15.8l-4.389,10.241l-1.317,2.633v2.048c0,0-3.95,5.559-3.511,8.339
				c0.439,2.779,2.926,2.341,4.389,1.463s4.535-9.655,4.535-9.655s2.926-1.756,3.804-3.072c0.878-1.317,1.463-2.633,1.902-3.218
				c0.439-0.585,12.581-20.481,13.02-22.09c0.439-1.609,5.706-17.555,5.706-17.555l2.487,1.17l8.778,17.409
				c0,0,0.585,24.577,0.731,25.309c0.146,0.732-0.878,2.78-0.731,3.365c0.146,0.585,0.585,3.218,0.585,3.218
				s-0.732,3.804,0.439,4.096c1.17,0.293,6.291-0.146,6.729-0.146s5.413,0.585,6.437,0.293c1.024-0.293,2.048-1.317,1.17-1.902
				c-0.878-0.585-3.072-2.048-4.681-3.072c-1.609-1.024-1.609-1.024-1.609-1.024s-0.293-2.195-0.293-2.633
				c0-0.439-0.732-1.463-0.878-2.926c-0.146-1.463,4.243-25.602,4.243-26.626c0-1.024-1.024-2.926-1.317-4.242
				c-0.293-1.317-8.631-19.604-8.631-19.604l-0.996-4.59l-26.946-1.554V188.661z"/>
			
				<path style="fill:#263238;stroke:#263238;stroke-width:0.5;stroke-linecap:round;stroke-linejoin:round;stroke-miterlimit:10;" d="
				M509.04,152.275c0,0,2.126,2.029,2.899,2.899s7.014,11.911,7.014,11.911l18.472-0.123l-0.193,4.058c0,0-22.354,4.596-23.224,4.21
				c-0.87-0.387-9.413-10.877-9.413-10.877L509.04,152.275z"/>
			
				<path style="fill:#92E3A9;stroke:#263238;stroke-width:0.5;stroke-linecap:round;stroke-linejoin:round;stroke-miterlimit:10;" d="
				M492.165,145.668c0,0-9.26,1.226-10.758,2.179c-1.498,0.953-6.673,11.439-7.354,14.98c-0.681,3.541-2.996,20.564-2.996,22.47
				c0,1.907,4.63,5.72,7.218,6.264c2.588,0.545,8.579,0.545,8.579,0.545l0.817-1.906l0.681,1.77c0,0,2.451-0.136,4.494-0.817
				c2.043-0.681,5.175-2.451,5.311-3.132c0.136-0.681,0-8.988,0.545-11.984c0.545-2.996,2.996-5.584,3.541-6.537
				c0.545-0.953,9.361-11.077,8.307-14.844c-1.053-3.767-11.031-7.626-11.031-7.626L492.165,145.668z"/>
			<g>
				<path style="fill:#263238;" d="M472.833,167.931l0.069,3.329c0.308,0.182,7.605,4.451,13.659,4.451
					c3.354,0,9.111-1.667,13.566-3.148c0.852-1.405,1.801-2.512,2.115-3.063c0.121-0.212,0.654-0.881,1.395-1.831
					c-4.5,1.663-13.205,4.586-17.076,4.586C481.457,172.255,472.901,167.971,472.833,167.931z"/>
				<path style="fill:#263238;" d="M486.69,181.302c-7.022-0.527-13.686-4.433-13.753-4.473l-1.18,1.986
					c-0.053,0.422-0.105,0.833-0.154,1.23c1.683,0.935,7.973,4.188,14.829,4.702c0.627,0.047,1.243,0.069,1.848,0.069
					c4.152,0,7.709-1.024,9.996-1.898c0.025-1.26,0.063-2.592,0.128-3.799C496.574,179.955,492.036,181.696,486.69,181.302z"/>
			</g>
			
				<path style="fill:#263238;stroke:#263238;stroke-width:0.5;stroke-linecap:round;stroke-linejoin:round;stroke-miterlimit:10;" d="
				M496.064,145.468c0,0-3.353-0.89-3.898,0.2c-0.545,1.09-1.089,3.405,0,7.49c1.089,4.085,6.264,12.665,6.264,12.665
				s3.132-4.494,4.766-6.4c1.634-1.907,2.996-4.222,1.634-7.762C503.469,148.119,497.919,144.86,496.064,145.468z"/>
			<g>
				
					<path style="fill:#FFFFFF;stroke:#263238;stroke-width:0.5;stroke-linecap:round;stroke-linejoin:round;stroke-miterlimit:10;" d="
					M513.261,146.229c0,0-2.095,3.402-3.765,4.66c-1.67,1.259-2.637,2.364-3.129,2.997c-0.492,0.633-2.225,0.644-3.264-0.022
					c-1.039-0.666-1.415-1.425-1.415-1.425s-0.779,1.484-0.99,4.369c-0.21,2.885-1.741,4.06-1.741,4.06s-1.06-7.495-1.984-9.554
					c-0.923-2.059-1.375-3.642-1.375-3.642s-0.067-1.51,0.464-2.204c0.532-0.694,0.723-1.262,0.723-1.262s-1.164-3.162-0.106-4.813
					c1.058-1.651,2.244-2.961,2.244-2.961s4.41,2.137,5.148,2.869c0.738,0.732,1.415,1.425,3.91,3.456
					c2.494,2.03,3.655,2.775,3.655,2.775L513.261,146.229z"/>
				<path style="fill:#263238;" d="M506.724,145.308c-0.285,0.388-0.661,0.595-0.841,0.463c-0.18-0.132-0.095-0.554,0.19-0.941
					c0.285-0.388,0.662-0.595,0.841-0.462S507.009,144.92,506.724,145.308z"/>
				<path style="fill:#263238;" d="M510.954,148.048c-0.285,0.388-0.661,0.595-0.841,0.463c-0.18-0.132-0.095-0.554,0.19-0.941
					c0.285-0.388,0.662-0.595,0.842-0.462S511.239,147.661,510.954,148.048z"/>
				
					<polyline style="fill:none;stroke:#263238;stroke-width:0.5;stroke-linecap:round;stroke-linejoin:round;stroke-miterlimit:10;" points="
					506.637,150.906 505.981,152.038 504.671,151.204 				"/>
				<path style="fill:none;stroke:#263238;stroke-width:0.5;stroke-linecap:round;stroke-linejoin:round;stroke-miterlimit:10;" d="
					M510.686,146.893l-1.362,0.545c0,0,0,2.724-0.817,3.541c-0.817,0.817-2.451-0.545-2.451-0.545"/>
				
					<path style="fill:#263238;stroke:#263238;stroke-width:0.5;stroke-linecap:round;stroke-linejoin:round;stroke-miterlimit:10;" d="
					M496.68,139.393c1.058-1.651,2.244-2.961,2.244-2.961s3.309,1.604,4.672,2.509l-1,0.105c0,0-1.369,1.193-1.692,1.158
					c-0.323-0.035,0.212-1.676-0.465-2.369c-0.677-0.693-1.297-0.4-1.867,0.356c-0.571,0.756-1.272,2.118-1.043,3.645
					c0.229,1.527,1.033,2.56,1.033,2.56s-0.422,1.196-1.099,0.503c-0.677-0.693-0.677-0.693-0.677-0.693
					S495.622,141.044,496.68,139.393z"/>
				<g>
					
						<path style="fill:#FFFFFF;stroke:#263238;stroke-width:0.5;stroke-linecap:round;stroke-linejoin:round;stroke-miterlimit:10;" d="
						M500.034,134.297c0,0,2.474-3.59,4.149-4.587c1.674-0.997,6.308-0.959,10.462,2.654c4.116,3.579,2.554,8.798,1.91,9.938
						c-0.645,1.14-1.109,3.344-1.082,3.706c0.027,0.362,1.058,1.714,0.595,1.762c-0.462,0.049-5.766-1.368-7.793-3.185
						c-2.027-1.817-4.736-4.589-4.736-4.589l-5.791-3.885C497.75,136.111,498.905,135.385,500.034,134.297z"/>
					
						<path style="fill:none;stroke:#263238;stroke-width:0.5;stroke-linecap:round;stroke-linejoin:round;stroke-miterlimit:10;" d="
						M513.278,132.473c0,0,2.141,2.945,1.606,4.551s-0.937,2.409-0.937,2.409s-1.071-0.268-1.606,0.669
						c-0.535,0.937-1.338,3.882-1.338,3.882s-2.811-3.212-4.551-4.417c-1.74-1.205-6.291-4.149-6.291-4.149"/>
					
						<path style="fill:none;stroke:#263238;stroke-width:0.5;stroke-linecap:round;stroke-linejoin:round;stroke-miterlimit:10;" d="
						M515.821,139.7c0,0,0.803-1.606,0.669-3.212"/>
				</g>
				
					<path style="fill:#263238;stroke:#263238;stroke-width:0.5;stroke-linecap:round;stroke-linejoin:round;stroke-miterlimit:10;" d="
					M501.688,152.439l-2.234-3.244c0,0,0.041,1.148,0.431,2.692c0.39,1.544,0.998,2.883,0.998,2.883
					S501.614,152.823,501.688,152.439z"/>
			</g>
			
				<path style="fill:#FFFFFF;stroke:#263238;stroke-width:0.5;stroke-linecap:round;stroke-linejoin:round;stroke-miterlimit:10;" d="
				M544.867,165.996c0,0,0.966-0.29,1.159,0.966c0.193,1.256,0.676,3.768,0.676,4.155c0,0.387-2.126,1.836-3.382,1.739l-0.386-4.252
				L544.867,165.996z"/>
			
				<path style="fill:#FFFFFF;stroke:#263238;stroke-width:0.5;stroke-linecap:round;stroke-linejoin:round;stroke-miterlimit:10;" d="
				M537.361,166.962c0,0,6.926-1.256,7.506-0.966c0.58,0.29,0.386,1.643,0.386,1.643s0.58,3.382,0.193,3.768
				c-0.386,0.387-1.932,0.773-1.932,0.773l-6.347-1.16L537.361,166.962z"/>
		</g>
		<g>
			<g>
				<polygon style="fill:#92E3A9;stroke:#263238;stroke-linecap:round;stroke-linejoin:round;stroke-miterlimit:10;" points="
					562.287,237.132 528.785,198.861 610.278,198.861 576.775,237.132 				"/>
			</g>
			
				<rect x="562.287" y="237.132" style="fill:#92E3A9;stroke:#263238;stroke-linecap:round;stroke-linejoin:round;stroke-miterlimit:10;" width="14.484" height="31.965"/>
		</g>
		<g>
			
				<rect x="404.607" y="170.505" style="fill:#FFFFFF;stroke:#263238;stroke-width:0.5;stroke-linecap:round;stroke-linejoin:round;stroke-miterlimit:10;" width="131.259" height="24.146"/>
			<polygon style="fill:#FFFFFF;stroke:#263238;stroke-linecap:round;stroke-linejoin:round;stroke-miterlimit:10;" points="
				444.211,198.413 376.977,198.413 398.582,166.742 444.211,166.742 			"/>
			
				<line style="fill:none;stroke:#263238;stroke-linecap:round;stroke-linejoin:round;stroke-miterlimit:10;" x1="420.668" y1="166.629" x2="420.668" y2="198.529"/>
			
				<line style="fill:none;stroke:#263238;stroke-linecap:round;stroke-linejoin:round;stroke-miterlimit:10;" x1="415.51" y1="166.629" x2="415.51" y2="198.529"/>
			
				<line style="fill:none;stroke:#263238;stroke-linecap:round;stroke-linejoin:round;stroke-miterlimit:10;" x1="410.353" y1="166.629" x2="410.353" y2="198.529"/>
			
				<line style="fill:none;stroke:#263238;stroke-linecap:round;stroke-linejoin:round;stroke-miterlimit:10;" x1="405.195" y1="166.629" x2="405.195" y2="198.529"/>
			
				<line style="fill:none;stroke:#263238;stroke-linecap:round;stroke-linejoin:round;stroke-miterlimit:10;" x1="400.038" y1="166.629" x2="400.038" y2="198.529"/>
			
				<line style="fill:none;stroke:#263238;stroke-linecap:round;stroke-linejoin:round;stroke-miterlimit:10;" x1="394.88" y1="166.629" x2="394.88" y2="198.529"/>
			
				<line style="fill:none;stroke:#263238;stroke-linecap:round;stroke-linejoin:round;stroke-miterlimit:10;" x1="389.723" y1="166.629" x2="389.723" y2="198.529"/>
			
				<line style="fill:none;stroke:#263238;stroke-linecap:round;stroke-linejoin:round;stroke-miterlimit:10;" x1="384.565" y1="166.629" x2="384.565" y2="198.529"/>
			<polygon style="fill:#FFFFFF;stroke:#263238;stroke-linecap:round;stroke-linejoin:round;stroke-miterlimit:10;" points="
				381.234,207.991 359.897,207.991 359.897,157.165 402.84,157.165 			"/>
			
				<rect x="532.018" y="169.494" style="fill:#FFFFFF;stroke:#263238;stroke-linecap:round;stroke-linejoin:round;stroke-miterlimit:10;" width="11.119" height="26.167"/>
			
				<rect x="424.212" y="157.165" style="fill:#FFFFFF;stroke:#263238;stroke-linecap:round;stroke-linejoin:round;stroke-miterlimit:10;" width="11.119" height="50.826"/>
		</g>
		<path style="fill:#263238;" d="M579.314,244.357h-21.809c-2.049,0-3.806,1.236-4.578,3h-31.47v-78.273c0-1.104-0.896-2-2-2
			c-1.105,0-2,0.896-2,2v80.273c0,1.104,0.895,2,2,2h33.47c0.772,1.764,2.529,3,4.578,3h21.809c2.762,0,5-2.238,5-5
			C584.314,246.596,582.075,244.357,579.314,244.357z"/>
		<g>
			
				<path style="fill:#263238;stroke:#263238;stroke-width:0.5;stroke-linecap:round;stroke-linejoin:round;stroke-miterlimit:10;" d="
				M483.314,161.193c0,0-3.124,1.698-5.03,3.468c-1.907,1.77-5.178,3.724-5.178,3.724s0.13,5.881,0.267,7.787
				c0.136,1.906,1.089,9.941,1.089,9.941l-5.039,1.907c0,0-4.086-12.937-4.766-16.614c-0.681-3.677-1.362-3.405-0.409-5.311
				c0.953-1.907,10.758-12.529,12.937-15.252c2.179-2.724,4.222-2.996,4.222-2.996S485.765,151.66,483.314,161.193z"/>
			<g>
				
					<path style="fill:#FFFFFF;stroke:#263238;stroke-width:0.5;stroke-linecap:round;stroke-linejoin:round;stroke-miterlimit:10;" d="
					M474.462,186.114c0,0,4.358,2.724,5.311,3.541c0.953,0.817,3.132,2.587,3.541,2.86c0.409,0.272-0.272,1.089-1.226,1.089
					c-0.953,0-3.813-2.043-3.813-2.043l2.179,6.537c0,0-0.318,0.567-0.866,0.512c-0.549-0.055-2.359-3.895-2.359-3.895l-0.823,0.219
					l1.975,4.06c0,0,0.274,0.384-0.055,0.494c-0.329,0.11-0.549,0.165-1.152-0.165c-0.604-0.329-2.359-4.06-2.359-4.06l-0.658-0.274
					c0,0,1.152,2.908,1.536,3.511s0.165,1.152-0.384,0.933c-0.549-0.219-1.481-1.81-1.481-1.81s-1.536-1.646-2.304-2.414
					c-0.768-0.768-2.1-7.189-2.1-7.189L474.462,186.114z"/>
				
					<line style="fill:#FFFFFF;stroke:#263238;stroke-width:0.5;stroke-linecap:round;stroke-linejoin:round;stroke-miterlimit:10;" x1="473.827" y1="197.623" x2="472.346" y2="194.715"/>
			</g>
		</g>
	</g>
</g>
<g id="Jerrycans">
	<g>
		
			<rect x="561.974" y="306.622" style="fill:#92E3A9;stroke:#263238;stroke-linecap:round;stroke-linejoin:round;stroke-miterlimit:10;" width="16.228" height="26.214"/>
		
			<rect x="561.974" y="306.622" style="fill:#92E3A9;stroke:#263238;stroke-linecap:round;stroke-linejoin:round;stroke-miterlimit:10;" width="16.228" height="7.976"/>
		
			<rect x="561.974" y="306.622" style="fill:#92E3A9;stroke:#263238;stroke-linecap:round;stroke-linejoin:round;stroke-miterlimit:10;" width="16.228" height="3.226"/>
		<g>
			<path style="fill:#92E3A9;stroke:#263238;stroke-linecap:round;stroke-linejoin:round;stroke-miterlimit:10;" d="
				M642.643,302.313h-52.595c-1.961,0-3.851,0.737-5.294,2.065l-21.258,24.768c-4.069,4.741-6.306,10.781-6.306,17.029v74.953
				c0,3.084,2.5,5.584,5.584,5.584h78.653c3.084,0,5.584-2.5,5.584-5.584V306.682C647.011,304.269,645.055,302.313,642.643,302.313z
				 M633.498,318.259c0,4.144-3.359,7.503-7.503,7.503h-22.353c-4.144,0-7.503-3.359-7.503-7.503v-10.382h37.359V318.259z"/>
			<path style="fill:none;stroke:#263238;stroke-linecap:round;stroke-linejoin:round;stroke-miterlimit:10;" d="M643.876,410.898
				l-25.06-25.061v-15.312c0.041-0.036,0.087-0.064,0.126-0.103l21.859-21.859c0.959-0.959,0.959-2.514,0-3.473
				c-0.959-0.959-2.514-0.959-3.473,0l-21.859,21.859c-0.113,0.113-0.211,0.236-0.298,0.364h-21.152
				c-0.087-0.128-0.184-0.251-0.298-0.364l-21.86-21.859c-0.959-0.959-2.515-0.959-3.473,0c-0.959,0.959-0.959,2.514,0,3.473
				l21.86,21.859c0.099,0.099,0.207,0.181,0.318,0.259v15.271l-24.945,24.946c-0.959,0.959-0.959,2.514,0,3.473
				c0.48,0.48,1.108,0.719,1.737,0.719c0.628,0,1.257-0.24,1.737-0.719l25.206-25.207c0.113-0.113,0.211-0.236,0.297-0.364H614.9
				c0.087,0.128,0.184,0.251,0.297,0.364l25.206,25.207c0.48,0.48,1.108,0.719,1.737,0.719c0.628,0,1.257-0.24,1.737-0.719
				C644.835,413.412,644.835,411.857,643.876,410.898z"/>
		</g>
	</g>
	<g>
		
			<rect x="447.994" y="306.622" style="fill:#92E3A9;stroke:#263238;stroke-linecap:round;stroke-linejoin:round;stroke-miterlimit:10;" width="16.228" height="26.214"/>
		
			<rect x="447.994" y="306.622" style="fill:#92E3A9;stroke:#263238;stroke-linecap:round;stroke-linejoin:round;stroke-miterlimit:10;" width="16.228" height="7.976"/>
		
			<rect x="447.994" y="306.622" style="fill:#92E3A9;stroke:#263238;stroke-linecap:round;stroke-linejoin:round;stroke-miterlimit:10;" width="16.228" height="3.226"/>
		<g>
			<path style="fill:#92E3A9;stroke:#263238;stroke-linecap:round;stroke-linejoin:round;stroke-miterlimit:10;" d="
				M528.663,302.313h-52.595c-1.961,0-3.851,0.737-5.294,2.065l-21.258,24.768c-4.069,4.741-6.306,10.781-6.306,17.029v74.953
				c0,3.084,2.5,5.584,5.584,5.584h78.653c3.084,0,5.584-2.5,5.584-5.584V306.682C533.032,304.269,531.076,302.313,528.663,302.313z
				 M519.519,318.259c0,4.144-3.359,7.503-7.503,7.503h-22.353c-4.144,0-7.503-3.359-7.503-7.503v-10.382h37.359V318.259z"/>
			<path style="fill:none;stroke:#263238;stroke-linecap:round;stroke-linejoin:round;stroke-miterlimit:10;" d="M529.897,410.898
				l-25.06-25.061v-15.312c0.041-0.036,0.087-0.064,0.126-0.103l21.859-21.859c0.959-0.959,0.959-2.514,0-3.473
				c-0.959-0.959-2.514-0.959-3.473,0l-21.859,21.859c-0.113,0.113-0.211,0.236-0.298,0.364H480.04
				c-0.087-0.128-0.184-0.251-0.298-0.364l-21.86-21.859c-0.959-0.959-2.515-0.959-3.473,0c-0.959,0.959-0.959,2.514,0,3.473
				l21.86,21.859c0.099,0.099,0.207,0.181,0.318,0.259v15.271l-24.945,24.946c-0.959,0.959-0.959,2.514,0,3.473
				c0.48,0.48,1.108,0.719,1.736,0.719c0.628,0,1.257-0.24,1.737-0.719l25.206-25.207c0.113-0.113,0.211-0.236,0.297-0.364h20.303
				c0.086,0.128,0.184,0.251,0.297,0.364l25.206,25.207c0.48,0.48,1.108,0.719,1.737,0.719c0.628,0,1.257-0.24,1.736-0.719
				C530.856,413.412,530.856,411.857,529.897,410.898z"/>
		</g>
	</g>
	<g>
		
			<rect x="334.015" y="306.622" style="fill:#92E3A9;stroke:#263238;stroke-linecap:round;stroke-linejoin:round;stroke-miterlimit:10;" width="16.228" height="26.214"/>
		
			<rect x="334.015" y="306.622" style="fill:#92E3A9;stroke:#263238;stroke-linecap:round;stroke-linejoin:round;stroke-miterlimit:10;" width="16.228" height="7.976"/>
		
			<rect x="334.015" y="306.622" style="fill:#92E3A9;stroke:#263238;stroke-linecap:round;stroke-linejoin:round;stroke-miterlimit:10;" width="16.228" height="3.226"/>
		<g>
			<path style="fill:#92E3A9;stroke:#263238;stroke-linecap:round;stroke-linejoin:round;stroke-miterlimit:10;" d="
				M414.684,302.313h-52.595c-1.961,0-3.851,0.737-5.294,2.065l-21.258,24.768c-4.069,4.741-6.306,10.781-6.306,17.029v74.953
				c0,3.084,2.5,5.584,5.585,5.584h78.653c3.084,0,5.584-2.5,5.584-5.584V306.682C419.053,304.269,417.097,302.313,414.684,302.313z
				 M405.54,318.259c0,4.144-3.359,7.503-7.503,7.503h-22.353c-4.144,0-7.503-3.359-7.503-7.503v-10.382h37.359V318.259z"/>
			<path style="fill:none;stroke:#263238;stroke-linecap:round;stroke-linejoin:round;stroke-miterlimit:10;" d="M415.917,410.898
				l-25.06-25.061v-15.312c0.041-0.036,0.087-0.064,0.126-0.103l21.859-21.859c0.959-0.959,0.959-2.514,0-3.473
				c-0.959-0.959-2.514-0.959-3.473,0l-21.859,21.859c-0.113,0.113-0.211,0.236-0.298,0.364H366.06
				c-0.087-0.128-0.184-0.251-0.298-0.364l-21.86-21.859c-0.959-0.959-2.515-0.959-3.473,0c-0.959,0.959-0.959,2.514,0,3.473
				l21.86,21.859c0.099,0.099,0.207,0.181,0.317,0.259v15.271l-24.945,24.946c-0.959,0.959-0.959,2.514,0,3.473
				c0.48,0.48,1.108,0.719,1.736,0.719s1.257-0.24,1.737-0.719l25.206-25.207c0.113-0.113,0.211-0.236,0.297-0.364h20.303
				c0.087,0.128,0.184,0.251,0.297,0.364l25.206,25.207c0.48,0.48,1.108,0.719,1.737,0.719c0.628,0,1.257-0.24,1.736-0.719
				C416.877,413.412,416.877,411.857,415.917,410.898z"/>
		</g>
	</g>
	<g>
		
			<rect x="220.036" y="306.622" style="fill:#92E3A9;stroke:#263238;stroke-linecap:round;stroke-linejoin:round;stroke-miterlimit:10;" width="16.228" height="26.214"/>
		
			<rect x="220.036" y="306.622" style="fill:#92E3A9;stroke:#263238;stroke-linecap:round;stroke-linejoin:round;stroke-miterlimit:10;" width="16.228" height="7.976"/>
		
			<rect x="220.036" y="306.622" style="fill:#92E3A9;stroke:#263238;stroke-linecap:round;stroke-linejoin:round;stroke-miterlimit:10;" width="16.228" height="3.226"/>
		<g>
			<path style="fill:#92E3A9;stroke:#263238;stroke-linecap:round;stroke-linejoin:round;stroke-miterlimit:10;" d="
				M300.705,302.313H248.11c-1.961,0-3.851,0.737-5.294,2.065l-21.258,24.768c-4.069,4.741-6.306,10.781-6.306,17.029v74.953
				c0,3.084,2.5,5.584,5.584,5.584h78.653c3.084,0,5.584-2.5,5.584-5.584V306.682C305.074,304.269,303.118,302.313,300.705,302.313z
				 M291.561,318.259c0,4.144-3.359,7.503-7.503,7.503h-22.353c-4.144,0-7.503-3.359-7.503-7.503v-10.382h37.359V318.259z"/>
			<path style="fill:none;stroke:#263238;stroke-linecap:round;stroke-linejoin:round;stroke-miterlimit:10;" d="M301.938,410.898
				l-25.06-25.061v-15.312c0.041-0.036,0.087-0.064,0.126-0.103l21.859-21.859c0.959-0.959,0.959-2.514,0-3.473
				c-0.959-0.959-2.514-0.959-3.473,0l-21.859,21.859c-0.113,0.113-0.211,0.236-0.298,0.364h-21.152
				c-0.087-0.128-0.184-0.251-0.298-0.364l-21.86-21.859c-0.959-0.959-2.515-0.959-3.473,0c-0.959,0.959-0.959,2.514,0,3.473
				l21.86,21.859c0.099,0.099,0.207,0.181,0.318,0.259v15.271l-24.945,24.946c-0.959,0.959-0.959,2.514,0,3.473
				c0.48,0.48,1.108,0.719,1.736,0.719c0.628,0,1.257-0.24,1.737-0.719l25.206-25.207c0.113-0.113,0.211-0.236,0.297-0.364h20.303
				c0.087,0.128,0.184,0.251,0.298,0.364l25.206,25.207c0.48,0.48,1.108,0.719,1.737,0.719c0.628,0,1.257-0.24,1.736-0.719
				C302.898,413.412,302.898,411.857,301.938,410.898z"/>
		</g>
	</g>
	<g>
		
			<rect x="103.809" y="306.622" style="fill:#92E3A9;stroke:#263238;stroke-linecap:round;stroke-linejoin:round;stroke-miterlimit:10;" width="16.228" height="26.214"/>
		
			<rect x="103.809" y="306.622" style="fill:#92E3A9;stroke:#263238;stroke-linecap:round;stroke-linejoin:round;stroke-miterlimit:10;" width="16.228" height="7.976"/>
		
			<rect x="103.809" y="306.622" style="fill:#92E3A9;stroke:#263238;stroke-linecap:round;stroke-linejoin:round;stroke-miterlimit:10;" width="16.228" height="3.226"/>
		<g>
			<path style="fill:#92E3A9;stroke:#263238;stroke-linecap:round;stroke-linejoin:round;stroke-miterlimit:10;" d="
				M184.478,302.313h-52.595c-1.961,0-3.851,0.737-5.294,2.065l-21.258,24.768c-4.069,4.741-6.306,10.781-6.306,17.029v74.953
				c0,3.084,2.5,5.584,5.584,5.584h78.653c3.084,0,5.584-2.5,5.584-5.584V306.682C188.847,304.269,186.891,302.313,184.478,302.313z
				 M175.334,318.259c0,4.144-3.359,7.503-7.503,7.503h-22.353c-4.144,0-7.503-3.359-7.503-7.503v-10.382h37.359V318.259z"/>
			<path style="fill:none;stroke:#263238;stroke-linecap:round;stroke-linejoin:round;stroke-miterlimit:10;" d="M185.712,410.898
				l-25.06-25.061v-15.312c0.041-0.036,0.087-0.064,0.126-0.103l21.859-21.859c0.959-0.959,0.959-2.514,0-3.473
				c-0.959-0.959-2.514-0.959-3.473,0l-21.859,21.859c-0.113,0.113-0.211,0.236-0.298,0.364h-21.152
				c-0.087-0.128-0.184-0.251-0.298-0.364l-21.86-21.859c-0.959-0.959-2.515-0.959-3.473,0c-0.959,0.959-0.959,2.514,0,3.473
				l21.86,21.859c0.099,0.099,0.207,0.181,0.317,0.259v15.271l-24.945,24.946c-0.959,0.959-0.959,2.514,0,3.473
				c0.48,0.48,1.108,0.719,1.737,0.719c0.628,0,1.257-0.24,1.736-0.719l25.206-25.207c0.113-0.113,0.211-0.236,0.298-0.364h20.303
				c0.087,0.128,0.184,0.251,0.297,0.364l25.206,25.207c0.48,0.48,1.108,0.719,1.736,0.719s1.257-0.24,1.736-0.719
				C186.671,413.412,186.671,411.857,185.712,410.898z"/>
		</g>
	</g>
</g>
<g id="Conveyor_Belt">
	
		<line style="fill:none;stroke:#263238;stroke-width:0.5;stroke-linecap:round;stroke-linejoin:round;stroke-miterlimit:10;" x1="13.827" y1="483.146" x2="738.623" y2="483.146"/>
	<g>
		<path style="fill:#A6A6A6;stroke:#263238;stroke-linecap:round;stroke-linejoin:round;stroke-miterlimit:10;" d="M725.793,426.349
			H30.857l0,0c-4.111,0-7.443,3.332-7.443,7.443v0.724v19.729l0,0c0,4.563,3.7,8.262,8.263,8.262l678.691,0.001l14.702-0.061
			c4.516-0.019,8.167-3.685,8.167-8.202l0,0v-19.729v-0.724C733.236,429.682,729.904,426.349,725.793,426.349L725.793,426.349z
			 M717.591,454.246H39.118c-4.563,0-8.262-3.699-8.262-8.262v-4.024c0-4.111,3.332-7.443,7.443-7.443h680.05
			c4.111,0,7.443,3.332,7.443,7.443v4.084C725.793,450.574,722.121,454.246,717.591,454.246z"/>
		<g>
			<g>
				
					<ellipse transform="matrix(0.9701 -0.2427 0.2427 0.9701 -86.6358 186.2016)" style="fill:#FFFFFF;stroke:#263238;stroke-linecap:round;stroke-linejoin:round;stroke-miterlimit:10;" cx="712.384" cy="444.713" rx="9.408" ry="9.408"/>
				<path style="fill:#FFFFFF;stroke:#263238;stroke-linecap:round;stroke-linejoin:round;stroke-miterlimit:10;" d="
					M717.345,444.714c0-2.74-2.221-4.961-4.961-4.961c-2.74,0-4.961,2.221-4.961,4.961s2.221,4.961,4.961,4.961
					C715.124,449.674,717.345,447.453,717.345,444.714z"/>
			</g>
			<g>
				
					<ellipse transform="matrix(0.7071 -0.7071 0.7071 0.7071 -123.5972 591.037)" style="fill:#FFFFFF;stroke:#263238;stroke-linecap:round;stroke-linejoin:round;stroke-miterlimit:10;" cx="651.646" cy="444.713" rx="9.408" ry="9.408"/>
				<path style="fill:#FFFFFF;stroke:#263238;stroke-linecap:round;stroke-linejoin:round;stroke-miterlimit:10;" d="
					M656.607,444.714c0-2.74-2.221-4.961-4.961-4.961c-2.74,0-4.961,2.221-4.961,4.961s2.221,4.961,4.961,4.961
					C654.386,449.674,656.607,447.453,656.607,444.714z"/>
			</g>
			<g>
				
					<ellipse transform="matrix(0.3849 -0.923 0.923 0.3849 -46.9795 818.9351)" style="fill:#FFFFFF;stroke:#263238;stroke-linecap:round;stroke-linejoin:round;stroke-miterlimit:10;" cx="590.908" cy="444.713" rx="9.408" ry="9.408"/>
				<path style="fill:#FFFFFF;stroke:#263238;stroke-linecap:round;stroke-linejoin:round;stroke-miterlimit:10;" d="
					M595.869,444.714c0-2.74-2.221-4.961-4.961-4.961c-2.74,0-4.961,2.221-4.961,4.961s2.221,4.961,4.961,4.961
					C593.648,449.674,595.869,447.453,595.869,444.714z"/>
			</g>
			<g>
				
					<ellipse transform="matrix(0.9735 -0.2288 0.2288 0.9735 -87.6965 133.1187)" style="fill:#FFFFFF;stroke:#263238;stroke-linecap:round;stroke-linejoin:round;stroke-miterlimit:10;" cx="530.17" cy="444.713" rx="9.408" ry="9.408"/>
				<path style="fill:#FFFFFF;stroke:#263238;stroke-linecap:round;stroke-linejoin:round;stroke-miterlimit:10;" d="
					M535.131,444.714c0-2.74-2.221-4.961-4.961-4.961c-2.74,0-4.961,2.221-4.961,4.961s2.221,4.961,4.961,4.961
					C532.91,449.674,535.131,447.453,535.131,444.714z"/>
			</g>
			<g>
				
					<ellipse transform="matrix(0.7071 -0.7071 0.7071 0.7071 -176.9665 462.1921)" style="fill:#FFFFFF;stroke:#263238;stroke-linecap:round;stroke-linejoin:round;stroke-miterlimit:10;" cx="469.432" cy="444.713" rx="9.408" ry="9.408"/>
				<path style="fill:#FFFFFF;stroke:#263238;stroke-linecap:round;stroke-linejoin:round;stroke-miterlimit:10;" d="
					M474.393,444.714c0-2.74-2.221-4.961-4.961-4.961c-2.74,0-4.961,2.221-4.961,4.961s2.221,4.961,4.961,4.961
					C472.172,449.674,474.393,447.453,474.393,444.714z"/>
			</g>
			<g>
				
					<ellipse transform="matrix(0.3849 -0.923 0.923 0.3849 -159.0617 650.7581)" style="fill:#FFFFFF;stroke:#263238;stroke-linecap:round;stroke-linejoin:round;stroke-miterlimit:10;" cx="408.694" cy="444.713" rx="9.408" ry="9.408"/>
				<path style="fill:#FFFFFF;stroke:#263238;stroke-linecap:round;stroke-linejoin:round;stroke-miterlimit:10;" d="
					M413.655,444.714c0-2.74-2.221-4.961-4.961-4.961c-2.74,0-4.961,2.221-4.961,4.961s2.221,4.961,4.961,4.961
					C411.434,449.674,413.655,447.453,413.655,444.714z"/>
			</g>
			<g>
				
					<ellipse transform="matrix(0.9735 -0.2288 0.2288 0.9735 -92.5313 91.4226)" style="fill:#FFFFFF;stroke:#263238;stroke-linecap:round;stroke-linejoin:round;stroke-miterlimit:10;" cx="347.956" cy="444.713" rx="9.408" ry="9.408"/>
				<path style="fill:#FFFFFF;stroke:#263238;stroke-linecap:round;stroke-linejoin:round;stroke-miterlimit:10;" d="
					M352.917,444.714c0-2.74-2.221-4.961-4.961-4.961c-2.74,0-4.961,2.221-4.961,4.961s2.221,4.961,4.961,4.961
					C350.696,449.674,352.917,447.453,352.917,444.714z"/>
			</g>
			<g>
				
					<ellipse transform="matrix(0.7353 -0.6778 0.6778 0.7353 -225.3815 312.4029)" style="fill:#FFFFFF;stroke:#263238;stroke-linecap:round;stroke-linejoin:round;stroke-miterlimit:10;" cx="287.218" cy="444.713" rx="9.408" ry="9.408"/>
				<path style="fill:#FFFFFF;stroke:#263238;stroke-linecap:round;stroke-linejoin:round;stroke-miterlimit:10;" d="
					M292.179,444.714c0-2.74-2.221-4.961-4.961-4.961s-4.961,2.221-4.961,4.961s2.221,4.961,4.961,4.961
					S292.179,447.453,292.179,444.714z"/>
			</g>
			<g>
				
					<ellipse transform="matrix(0.3827 -0.9239 0.9239 0.3827 -271.052 483.7693)" style="fill:#FFFFFF;stroke:#263238;stroke-linecap:round;stroke-linejoin:round;stroke-miterlimit:10;" cx="226.48" cy="444.713" rx="9.408" ry="9.408"/>
				<path style="fill:#FFFFFF;stroke:#263238;stroke-linecap:round;stroke-linejoin:round;stroke-miterlimit:10;" d="
					M231.441,444.714c0-2.74-2.221-4.961-4.961-4.961s-4.961,2.221-4.961,4.961s2.221,4.961,4.961,4.961
					S231.441,447.453,231.441,444.714z"/>
			</g>
			<g>
				
					<ellipse transform="matrix(0.9708 -0.2399 0.2399 0.9708 -101.8369 52.7414)" style="fill:#FFFFFF;stroke:#263238;stroke-linecap:round;stroke-linejoin:round;stroke-miterlimit:10;" cx="165.742" cy="444.713" rx="9.408" ry="9.408"/>
				<path style="fill:#FFFFFF;stroke:#263238;stroke-linecap:round;stroke-linejoin:round;stroke-miterlimit:10;" d="
					M170.703,444.714c0-2.74-2.221-4.961-4.961-4.961c-2.74,0-4.961,2.221-4.961,4.961s2.221,4.961,4.961,4.961
					C168.482,449.674,170.703,447.453,170.703,444.714z"/>
			</g>
			<g>
				
					<ellipse transform="matrix(0.7071 -0.7071 0.7071 0.7071 -283.7051 204.5023)" style="fill:#FFFFFF;stroke:#263238;stroke-linecap:round;stroke-linejoin:round;stroke-miterlimit:10;" cx="105.004" cy="444.713" rx="9.408" ry="9.408"/>
				<path style="fill:#FFFFFF;stroke:#263238;stroke-linecap:round;stroke-linejoin:round;stroke-miterlimit:10;" d="
					M109.965,444.714c0-2.74-2.221-4.961-4.961-4.961s-4.961,2.221-4.961,4.961s2.221,4.961,4.961,4.961
					S109.965,447.453,109.965,444.714z"/>
			</g>
			<g>
				
					<ellipse transform="matrix(0.3827 -0.9239 0.9239 0.3827 -383.5359 315.4253)" style="fill:#FFFFFF;stroke:#263238;stroke-linecap:round;stroke-linejoin:round;stroke-miterlimit:10;" cx="44.265" cy="444.713" rx="9.408" ry="9.408"/>
				<path style="fill:#FFFFFF;stroke:#263238;stroke-linecap:round;stroke-linejoin:round;stroke-miterlimit:10;" d="
					M49.227,444.714c0-2.74-2.221-4.961-4.961-4.961c-2.74,0-4.961,2.221-4.961,4.961s2.221,4.961,4.961,4.961
					C47.005,449.674,49.227,447.453,49.227,444.714z"/>
			</g>
		</g>
		<g>
			<g>
				
					<line style="fill:none;stroke:#263238;stroke-linecap:round;stroke-linejoin:round;stroke-miterlimit:10;" x1="85.577" y1="426.634" x2="85.577" y2="433.404"/>
				
					<line style="fill:none;stroke:#263238;stroke-linecap:round;stroke-linejoin:round;stroke-miterlimit:10;" x1="85.577" y1="455.023" x2="85.577" y2="461.792"/>
			</g>
			<g>
				
					<line style="fill:none;stroke:#263238;stroke-linecap:round;stroke-linejoin:round;stroke-miterlimit:10;" x1="139.072" y1="426.634" x2="139.072" y2="433.404"/>
				
					<line style="fill:none;stroke:#263238;stroke-linecap:round;stroke-linejoin:round;stroke-miterlimit:10;" x1="139.072" y1="455.023" x2="139.072" y2="461.792"/>
			</g>
			<g>
				
					<line style="fill:none;stroke:#263238;stroke-linecap:round;stroke-linejoin:round;stroke-miterlimit:10;" x1="192.568" y1="426.634" x2="192.568" y2="433.404"/>
				
					<line style="fill:none;stroke:#263238;stroke-linecap:round;stroke-linejoin:round;stroke-miterlimit:10;" x1="192.568" y1="455.023" x2="192.568" y2="461.792"/>
			</g>
			<g>
				
					<line style="fill:none;stroke:#263238;stroke-linecap:round;stroke-linejoin:round;stroke-miterlimit:10;" x1="246.063" y1="426.634" x2="246.063" y2="433.404"/>
				
					<line style="fill:none;stroke:#263238;stroke-linecap:round;stroke-linejoin:round;stroke-miterlimit:10;" x1="246.063" y1="455.023" x2="246.063" y2="461.792"/>
			</g>
			<g>
				
					<line style="fill:none;stroke:#263238;stroke-linecap:round;stroke-linejoin:round;stroke-miterlimit:10;" x1="299.559" y1="426.634" x2="299.559" y2="433.404"/>
				
					<line style="fill:none;stroke:#263238;stroke-linecap:round;stroke-linejoin:round;stroke-miterlimit:10;" x1="299.559" y1="455.023" x2="299.559" y2="461.792"/>
			</g>
			<g>
				
					<line style="fill:none;stroke:#263238;stroke-linecap:round;stroke-linejoin:round;stroke-miterlimit:10;" x1="353.054" y1="426.634" x2="353.054" y2="433.404"/>
				
					<line style="fill:none;stroke:#263238;stroke-linecap:round;stroke-linejoin:round;stroke-miterlimit:10;" x1="353.054" y1="455.023" x2="353.054" y2="461.792"/>
			</g>
			<g>
				
					<line style="fill:none;stroke:#263238;stroke-linecap:round;stroke-linejoin:round;stroke-miterlimit:10;" x1="406.549" y1="426.634" x2="406.549" y2="433.404"/>
				
					<line style="fill:none;stroke:#263238;stroke-linecap:round;stroke-linejoin:round;stroke-miterlimit:10;" x1="406.549" y1="455.023" x2="406.549" y2="461.792"/>
			</g>
			<g>
				
					<line style="fill:none;stroke:#263238;stroke-linecap:round;stroke-linejoin:round;stroke-miterlimit:10;" x1="460.045" y1="426.634" x2="460.045" y2="433.404"/>
				
					<line style="fill:none;stroke:#263238;stroke-linecap:round;stroke-linejoin:round;stroke-miterlimit:10;" x1="460.045" y1="455.023" x2="460.045" y2="461.792"/>
			</g>
			<g>
				
					<line style="fill:none;stroke:#263238;stroke-linecap:round;stroke-linejoin:round;stroke-miterlimit:10;" x1="513.54" y1="426.634" x2="513.54" y2="433.404"/>
				
					<line style="fill:none;stroke:#263238;stroke-linecap:round;stroke-linejoin:round;stroke-miterlimit:10;" x1="513.54" y1="455.023" x2="513.54" y2="461.792"/>
			</g>
			<g>
				
					<line style="fill:none;stroke:#263238;stroke-linecap:round;stroke-linejoin:round;stroke-miterlimit:10;" x1="567.035" y1="426.634" x2="567.035" y2="433.404"/>
				
					<line style="fill:none;stroke:#263238;stroke-linecap:round;stroke-linejoin:round;stroke-miterlimit:10;" x1="567.035" y1="455.023" x2="567.035" y2="461.792"/>
			</g>
			<g>
				
					<line style="fill:none;stroke:#263238;stroke-linecap:round;stroke-linejoin:round;stroke-miterlimit:10;" x1="620.531" y1="426.634" x2="620.531" y2="433.404"/>
				
					<line style="fill:none;stroke:#263238;stroke-linecap:round;stroke-linejoin:round;stroke-miterlimit:10;" x1="620.531" y1="455.023" x2="620.531" y2="461.792"/>
			</g>
			<g>
				
					<line style="fill:none;stroke:#263238;stroke-linecap:round;stroke-linejoin:round;stroke-miterlimit:10;" x1="674.026" y1="426.634" x2="674.026" y2="433.404"/>
				
					<line style="fill:none;stroke:#263238;stroke-linecap:round;stroke-linejoin:round;stroke-miterlimit:10;" x1="674.026" y1="455.023" x2="674.026" y2="461.792"/>
			</g>
		</g>
	</g>
</g>
<g id="Character_1">
	<g>
		
			<path style="fill:#263238;stroke:#263238;stroke-width:0.5;stroke-linecap:round;stroke-linejoin:round;stroke-miterlimit:10;" d="
			M75.885,376.455c0,0,3.326,2.397,4.394,4.78c1.068,2.383,4.767,13.149,5.26,14.793c0.493,1.644,2.794,4.602,2.055,7.396
			c-0.74,2.794-1.808,3.287-3.945,3.205c-2.137-0.082-4.684-3.041-4.684-3.041s-0.822-14.464-1.315-17.176
			c-0.493-2.712-2.712-8.794-2.959-9.287C74.445,376.633,75.518,376.195,75.885,376.455z"/>
		
			<path style="fill:#263238;stroke:#263238;stroke-width:0.5;stroke-linecap:round;stroke-linejoin:round;stroke-miterlimit:10;" d="
			M78.065,415.118c0,0-4.516,33.754-4.635,35.299c-0.119,1.545-3.565,18.541-3.565,20.68c0,2.139,0,3.566,0,3.566
			s2.258,1.307,2.258,1.783s0,1.307,0,1.307s0.119,0.475,2.258,2.139c2.139,1.664,3.09,2.853,1.783,3.685
			c-1.307,0.832-6.537,0-6.537,0s0.282,1.821-2.333,1.702c-2.615-0.119-3.716,0.676-7.914-0.989
			c-2.866-1.137-6.662-1.301-7.137-3.321c-0.475-2.02,0.031-4.679,0.031-5.154s-0.594-4.479-0.594-6.143
			c0-1.664,0-3.922,0.594-5.705c0.594-1.783-0.713-12.598,0.476-16.877c1.188-4.279,1.783-10.459,1.783-11.648
			s-1.426-19.848-1.426-19.848L78.065,415.118z"/>
		
			<path style="fill:#92E3A9;stroke:#263238;stroke-width:0.5;stroke-linecap:round;stroke-linejoin:round;stroke-miterlimit:10;" d="
			M69.395,373.651c0,0,5.769,1.763,6.49,2.804c0.721,1.042,2.884,7.772,2.804,16.505c-0.08,8.733,0.801,22.194,0.481,22.915
			c-0.32,0.721-5.208,2.404-6.25,2.484c-1.042,0.08-1.843-0.08-1.843-0.08l-0.801-1.442l-0.32,1.843c0,0-2.884,0.881-9.294,0.16
			s-8.733-1.843-8.974-2.324c-0.24-0.481-0.32-2.964-0.32-2.964s-1.602-27.001-1.442-30.687c0.16-3.686,1.683-6.41,3.445-7.772
			c1.763-1.362,6.33-2.564,6.33-2.564S65.87,371.968,69.395,373.651z"/>
		
			<path style="fill:#FFFFFF;stroke:#263238;stroke-width:0.5;stroke-linecap:round;stroke-linejoin:round;stroke-miterlimit:10;" d="
			M69.395,386.551c0,0,1.682,21.072,0.881,27.963"/>
		
			<path style="fill:#263238;stroke:#263238;stroke-width:0.5;stroke-linecap:round;stroke-linejoin:round;stroke-miterlimit:10;" d="
			M78.689,392.96c0,0-10.175,2.564-26.04,0.641l0.16,2.965c0,0,15.223,2.163,25.479-1.282L78.689,392.96z"/>
		
			<path style="fill:#263238;stroke:#263238;stroke-width:0.5;stroke-linecap:round;stroke-linejoin:round;stroke-miterlimit:10;" d="
			M78.609,407.703c0,0-7.772,3.846-25.96,0.881l-0.16,2.404c0,0,15.143,4.006,25.879-0.881L78.609,407.703z"/>
		
			<path style="fill:#263238;stroke:#263238;stroke-width:0.5;stroke-linecap:round;stroke-linejoin:round;stroke-miterlimit:10;" d="
			M51.368,377.577c0,0,1.522,0.32,2.724,4.407c1.202,4.086,1.763,18.188,1.763,18.188s5.769,1.602,7.211,1.923
			s3.605,0.641,3.605,0.641l-0.401,4.727c0,0-5.528,0-10.817-0.561c-5.288-0.561-6.89-1.122-7.131-1.522
			c-0.24-0.401-0.24-1.683-0.24-2.003c0-0.32-1.442-13.701,0.24-19.63C50.006,377.817,50.807,377.497,51.368,377.577z"/>
		
			<polygon style="fill:#FFFFFF;stroke:#263238;stroke-width:0.5;stroke-linecap:round;stroke-linejoin:round;stroke-miterlimit:10;" points="
			76.366,399.21 79.971,391.518 92.711,391.759 81.974,406.661 72.36,407.302 		"/>
		<g>
			
				<path style="fill:#FFFFFF;stroke:#263238;stroke-width:0.5;stroke-linecap:round;stroke-linejoin:round;stroke-miterlimit:10;" d="
				M66.671,402.735c0,0,1.602-0.321,3.045-1.202c1.442-0.881,3.766-1.682,4.166-1.682c0.401,0,2.484-0.641,2.484-0.641l-0.974,1.965
				c0,0,5.621,3.083,5.461,3.483c-0.16,0.401-1.042,0.401-1.042,0.401s-0.16,0.801-0.561,0.961c-0.401,0.16-1.362,0.481-1.362,0.481
				s-0.481,1.362-2.404,1.603c-1.923,0.24-4.166,0.24-5.689,0c-1.522-0.24-3.525-0.641-3.525-0.641L66.671,402.735z"/>
			
				<path style="fill:#FFFFFF;stroke:#263238;stroke-width:0.5;stroke-linecap:round;stroke-linejoin:round;stroke-miterlimit:10;" d="
				M75.392,401.175c0,0-1.43-0.443-1.911-0.362"/>
		</g>
		<g>
			
				<path style="fill:#263238;stroke:#263238;stroke-width:0.5;stroke-linecap:round;stroke-linejoin:round;stroke-miterlimit:10;" d="
				M56.976,361.472c0,0-0.561,2.404-0.32,3.926c0.24,1.522,2.083,2.644,2.083,2.644s-2.163,0.401-3.125,2.644
				c-0.961,2.243-0.401,5.128-0.401,5.128l6.89-2.243c0,0,0.32-4.246-0.561-5.448c-0.881-1.202-2.484-3.766-2.484-4.487
				s0.641-2.884,0.641-2.884L56.976,361.472z"/>
			
				<path style="fill:#263238;stroke:#263238;stroke-width:0.5;stroke-linecap:round;stroke-linejoin:round;stroke-miterlimit:10;" d="
				M69.716,373.09c0,0,2.003,0.401,2.083,2.003c0.08,1.602-2.003,9.855-2.564,10.095c-0.561,0.24-9.935-9.374-10.336-10.576
				c-0.401-1.202-0.401-2.243,0.32-2.724c0.721-0.481,1.603-0.801,1.603-0.801L69.716,373.09z"/>
			<g>
				
					<path style="fill:#FFFFFF;stroke:#263238;stroke-width:0.5;stroke-linecap:round;stroke-linejoin:round;stroke-miterlimit:10;" d="
					M73.882,360.351c0,0,0.16,3.445-0.24,5.368c-0.401,1.923-0.881,4.407-1.362,5.368c-0.481,0.961-0.962,1.202-1.763,1.602
					c-0.801,0.401-0.801,0.401-0.801,0.401s-0.24,10.736-0.961,11.137c-0.721,0.401-8.173-12.339-8.173-12.339l-0.641-4.407
					l-0.721-1.202c0,0-1.442-1.122-1.282-2.484c0.16-1.362,1.042-2.323,1.042-2.323l5.208-1.763c0,0,2.324,0.481,5.208,0.401
					c2.884-0.08,4.086-0.801,4.086-0.801L73.882,360.351z"/>
				<path style="fill:#263238;" d="M68.516,363.194c0,0.492-0.254,0.891-0.567,0.891c-0.313,0-0.567-0.399-0.567-0.891
					c0-0.492,0.254-0.891,0.567-0.891C68.262,362.303,68.516,362.702,68.516,363.194z"/>
				<ellipse style="fill:#263238;" cx="72.324" cy="362.627" rx="0.567" ry="0.891"/>
				<path style="fill:none;stroke:#263238;stroke-width:0.5;stroke-linecap:round;stroke-linejoin:round;stroke-miterlimit:10;" d="
					M71.757,368.783c0,0-1.782,0.486-2.754,0.162"/>
				
					<path style="fill:#263238;stroke:#263238;stroke-width:0.5;stroke-linecap:round;stroke-linejoin:round;stroke-miterlimit:10;" d="
					M60.739,360.682c0,0,0.486,2.268,1.62,2.106c1.134-0.162,1.828-3.079,1.828-3.079L60.739,360.682z"/>
				
					<path style="fill:#263238;stroke:#263238;stroke-width:0.5;stroke-linecap:round;stroke-linejoin:round;stroke-miterlimit:10;" d="
					M69.716,373.09c0,0-1.042,0-1.282-0.08c-0.24-0.08-4.327-2.163-4.327-2.163l5.208,6.81L69.716,373.09z"/>
				<path style="fill:none;stroke:#263238;stroke-width:0.5;stroke-linecap:round;stroke-linejoin:round;stroke-miterlimit:10;" d="
					M71.158,362.274c0,0-0.16,0.08-0.16,0.962c0,0.881,1.522,3.445,1.202,3.686c-0.32,0.24-1.923,0.481-2.404,0.481"/>
			</g>
			<g>
				
					<path style="fill:#FFFFFF;stroke:#263238;stroke-width:0.5;stroke-linecap:round;stroke-linejoin:round;stroke-miterlimit:10;" d="
					M64.267,348.172c0,0,3.451-0.636,5.631,0.727c2.18,1.362,3.414,2.394,3.868,3.938c0.454,1.544,1.09,4.632,1.09,4.632
					s3.905,1.635,3.088,2.18c-0.817,0.545-7.266,1.907-8.809,1.816c-1.544-0.091-5.358-0.817-5.358-0.817l-7.81,1.544
					c0,0,0.363-0.727,0.363-1.453c0-0.727-0.928-6.586,0.487-8.64C59.3,348.493,64.267,348.172,64.267,348.172z"/>
				
					<line style="fill:none;stroke:#263238;stroke-width:0.5;stroke-linecap:round;stroke-linejoin:round;stroke-miterlimit:10;" x1="73.161" y1="357.146" x2="64.908" y2="358.989"/>
				<path style="fill:none;stroke:#263238;stroke-width:0.5;stroke-linecap:round;stroke-linejoin:round;stroke-miterlimit:10;" d="
					M72.199,356.345c0,0-0.641-2.804-1.282-2.965c-0.641-0.16-1.282-0.481-1.282-0.481s-1.042-3.525-3.285-4.487"/>
				<path style="fill:none;stroke:#263238;stroke-width:0.5;stroke-linecap:round;stroke-linejoin:round;stroke-miterlimit:10;" d="
					M64.187,348.813c0,0,2.884,0.881,3.285,4.327c0,0-1.602,0.561-1.602,1.602s0.561,3.205,0.561,3.205"/>
			</g>
		</g>
	</g>
</g>
<g id="Earth">
	<g>
		
			<ellipse transform="matrix(0.7071 -0.7071 0.7071 0.7071 -35.1335 216.7536)" style="fill:#92E3A9;" cx="244.078" cy="150.787" rx="140.128" ry="140.128"/>
		<g style="opacity:0.2;">
			<path d="M274.873,108.915c43.201,18.515,81.28,17.653,97.395,16.111c-4.122-0.673-12.071-2.674-23.289-8.684
				c-16.985-9.099-65.515-33.971-129.817-52.169c-26.617-7.533-40.329-12.154-47.267-14.985
				C188.741,61.297,230.668,89.97,274.873,108.915z"/>
			<path d="M375.513,125.374c0,0-0.868,0.001-2.511-0.232c0.182,0.926,0.354,1.851,0.515,2.777
				C374.743,126.391,375.513,125.374,375.513,125.374z"/>
			<path d="M165.832,44.761c0,0-0.765,0.085-0.706,0.545C165.364,45.127,165.593,44.939,165.832,44.761z"/>
		</g>
		<path style="fill:#263238;" d="M274.873,108.915c-51.23-21.956-99.432-56.999-109.041-64.154
			c-42.929,31.83-63.713,88.137-47.837,142.427c20.363,69.634,93.319,109.576,162.953,89.214
			c65.804-19.243,105.082-85.452,92.021-151.442C357.269,126.54,318.698,127.698,274.873,108.915z"/>
		
			<circle style="fill:none;stroke:#FFFFFF;stroke-width:0.5;stroke-linecap:round;stroke-linejoin:round;stroke-miterlimit:10;" cx="315.417" cy="151.024" r="6.888"/>
		<path style="fill:none;stroke:#FFFFFF;stroke-width:0.5;stroke-linecap:round;stroke-linejoin:round;stroke-miterlimit:10;" d="
			M353.301,144.136c0,2.378-1.927,4.305-4.305,4.305c-2.378,0-4.305-1.927-4.305-4.305c0-2.378,1.927-4.305,4.305-4.305
			C351.373,139.831,353.301,141.758,353.301,144.136z"/>
		<path style="fill:none;stroke:#FFFFFF;stroke-width:0.5;stroke-linecap:round;stroke-linejoin:round;stroke-miterlimit:10;" d="
			M348.135,176.423c0,1.664-1.349,3.013-3.013,3.013c-1.664,0-3.013-1.349-3.013-3.013c0-1.664,1.349-3.014,3.013-3.014
			C346.785,173.41,348.135,174.759,348.135,176.423z"/>
		<path style="fill:none;stroke:#FFFFFF;stroke-width:0.5;stroke-linecap:round;stroke-linejoin:round;stroke-miterlimit:10;" d="
			M149.245,153.607c0,1.426-1.156,2.583-2.583,2.583c-1.426,0-2.583-1.156-2.583-2.583c0-1.427,1.156-2.583,2.583-2.583
			C148.089,151.024,149.245,152.18,149.245,153.607z"/>
		
			<circle style="fill:none;stroke:#FFFFFF;stroke-width:0.5;stroke-linecap:round;stroke-linejoin:round;stroke-miterlimit:10;" cx="139.664" cy="128.527" r="7.859"/>
		<path style="fill:#FFFFFF;" d="M340.924,78.093l-5.285-5.038l-6.522-5.716l-4.077-9.203l6.026-0.723l-0.614-3.285l-4.243,0.894
			l3.045-2.623l3.177-3.354l-0.933-3.192l-5.324-3.987l-2.827-6.63c-33.481-22.94-76.604-31.225-118.597-18.945
			c-19.089,5.582-36.08,14.877-50.432,26.858l8.885,3.061l-2.788,7.052l-5.692,3.051l1.882,8.805l-2.273,1.704l-2.165,4.445
			l1.999,5.652l5.613-0.948l-0.647,6.08l5.427-1.587l5.803-14.518l-0.535-5.387l8.751-3.252l1.114-4.484l8.977-3.664l-0.629-5.706
			l6.61-2.28c0,0,4.041-3.954,4.999-4.234c0.958-0.28,5.893,0.009,5.893,0.009l5.908,2.43l6.703-1.96l4.719-5.191l7.528-1.509
			c0,0,2.289,0.717,3.885,0.25c1.596-0.467,5.731-4.101,5.731-4.101l10.937,3.039l4.671,1.753l1.4,4.788l4.975-0.762l0.756-3.339
			l4.71,0.701l0.428,2.647l-8.829,5.354l7.48,5.436l13.358,3.024l6.655,4.984l7.209-1.415l0.663-3.659l2.367-1.385l-10.166-3.957
			l-5.294,0.855l3.776-2.49l-5.417-4.306l5.333-1.906l8.143,1.777l3.836,7.194l4.725,3.123l5.579,8.417l8.516,3.054l3.08,10.534
			l8.741,2.641l0.708,3.604l0.256,4.43l3.596,5.186l1.478,2.686l5.706-0.629l0.967-6.173L340.924,78.093z"/>
		<path style="fill:#C2C2C2;" d="M179.293,54.419c-6.443-4.484-11.111-7.908-13.461-9.658c-1.003,0.744-1.981,1.514-2.96,2.284
			l-2.459,6.218l-5.692,3.051l1.882,8.805l-2.273,1.704l-2.165,4.445l1.999,5.652l5.613-0.948l-0.647,6.08l5.427-1.587l5.803-14.518
			l-0.535-5.387l8.751-3.252L179.293,54.419z"/>
		<g>
			<polygon style="fill:#C2C2C2;" points="221.034,89.937 235.482,91.949 240.673,96.667 247.073,97.222 249.485,103.1 
				248.277,107.265 244.088,109.529 233.392,108.499 233.018,107.222 237.792,103.401 233.916,97.258 224.364,96.586 219.04,92.599 
							"/>
			<path style="fill:#C2C2C2;" d="M344.597,213.887l-11.428-1.163l-13.756-0.829l-9.896,2.894l-9.817,0.792l-9.561,5.221
				l-5.652,1.999l-3.512,1.027l-5.583,5.791l-5.637,4.42l-10.206-2.906l-0.379-9.591l-6.08-0.648l-6.384,1.867l-1.798-2.593
				l-1.042-5.933l-3.168-2.538l-4.282,1.945l-0.344,3.566l-5.333,1.906l-6.468-4.345l-4.155-7.101l2.174-10.338l9.444-2.068
				l3.207,1.488l3.831-1.12l3.948-4.273l4.523,0.063l8.639,8.215l2.141-0.972l-2.785-7.155l-3.035-3.27l-1.135-6.252l10.317-8.561
				l-1.857-12.277l3.894-5.643l2.003-8.555l3.005-1.572l5.941-6.935l-0.428-2.647l-5.014,1.813l-1.704-2.274l-3.511,1.027
				l-5.053,2.863l1.34-4.896l10.239-6.459l1.713-3.62l6.522,5.716l3.713,2.033l4.095-2.583l-3.129-3.589l-8.104-2.828l-10.181-6.378
				l-9.567-3.093l-8.034,0.963l-4.95-2.71l-5.481,0.217l-0.265,1.464l2.068,9.444l2.21,2.819l0.115,11.055l-7.878-3.24l-0.349-4.749
				l-7.637-1.232l-3.899-2.671l-0.738-8.447l7.297-9.41l-1.602-7.848l-3.418,1.346l-3.074-2.22l-2.358-4.508l-2.328,0.334
				l0.217,5.481l-3.325,1.665l-4.863-10.706l-3.02-0.849l-5.029-0.609l-4.361,4.047l8.158,4.198l2.864,5.053l-14.012-5.258
				l-10.5-6.285l-3.159-8.432l-9.046-0.127l-5.171,6.017c0,0-2.632,2.849-4.042,3.954c-1.409,1.105-7.287,3.517-7.287,3.517
				l0.31,5.8l-7.249,2.466l1.665,3.325l12.371-1.538l8.025,4.93l3.267,11.172l-0.618,10.922l3.719,10.347l-4.364,18.255
				l4.899,23.862l6.793,12.566l7.137,9.001l4.975-0.762l-3.089-4.64l-3.673-3.084l-3.65-6.555l2.686-1.479l7.829,10.185l6.179,9.281
				l2.427,8.299l8.212,5.568l13.186,4.807l17.905-0.385l6.508,3.295l5.324,3.987l6.773,1.831l7.583-0.139l6.929-2.372
				c0,0,0.614,3.285,1.081,4.881c0.467,1.596-2.416,8.329-2.416,8.329l-1.644,7.411l4.607,6.276l7.863,0.819l12.882,7.321
				l5.029,0.608l1.4,4.788l1.21,2.066c24.203-11.524,43.944-29.461,57.732-51.094l-0.511-2.363l4.045-18.161l-4.99-1.659
				L344.597,213.887z"/>
			<path style="fill:#FFFFFF;" d="M335.67,44.723l0.536,1.833l-0.102,5.574l2.264,4.189l3.885,0.25l1.774,6.065l-4.297-0.476
				l4.083,17.517l-1.777,8.143l5.167,8.191l5.27,2.617l5.04,17.237l8.07,12.193l7.456,8.908l7.902-0.232l0.687-7.131l0.802-1.118
				c-0.923-5.678-2.2-11.362-3.856-17.025C370.699,84.53,355.448,61.77,335.67,44.723z"/>
			<polygon style="fill:#C2C2C2;" points="252.589,206.142 251.686,207.792 262.102,207.865 267.239,211.213 273.491,210.079 
				274.699,205.914 266.983,206.783 			"/>
			<polygon style="fill:#C2C2C2;" points="282.772,203.899 276.629,207.775 278.333,210.048 286.632,207.621 287.482,204.601 
				284.702,205.76 			"/>
		</g>
		
			<ellipse transform="matrix(0.7071 -0.7071 0.7071 0.7071 -35.1335 216.7536)" style="fill:none;stroke:#263238;stroke-linecap:round;stroke-linejoin:round;stroke-miterlimit:10;" cx="244.078" cy="150.787" rx="140.128" ry="140.128"/>
	</g>
</g>
</svg>
